<svg width="214" height="69" viewBox="0 0 214 69" fill="none" xmlns="http://www.w3.org/2000/svg">
<path d="M208.728 27.1464L210.785 29.4339C211.754 30.5103 211.755 32.1433 210.789 33.2214C210.395 33.6608 209.874 33.9664 209.298 34.0955L203.547 35.3845L196.911 36.8721L188.365 38.2191C188.182 38.248 188.001 38.2939 187.826 38.3563L183.639 39.8471L177.175 42.9909C177.008 43.0723 176.848 43.1691 176.699 43.2801L175.273 44.3392C174.87 44.6382 174.549 45.0334 174.338 45.4886L172.484 49.4976C172.321 49.8516 172.228 50.2341 172.21 50.6237L172.087 53.4093C172.056 54.1018 172.266 54.7836 172.681 55.3388L174.106 57.2452L175.532 59.1516C175.947 59.7067 176.157 60.3885 176.126 61.081L176.079 62.1422C176.039 63.0439 175.595 63.8797 174.87 64.4178L174.111 64.9817C173.872 65.1589 173.609 65.2996 173.329 65.3993L171.789 65.9475C171.614 66.0098 171.433 66.0558 171.25 66.0847L167.413 66.6894C167.215 66.7207 167.014 66.732 166.813 66.7231L163.045 66.5558C162.845 66.5469 162.645 66.5179 162.45 66.4691L154.08 64.3757L143.23 62.1119L136.752 60.0422L130.234 58.8618L123.716 57.6814L117.199 56.501L108.495 55.2236L99.7523 54.8355L82.2665 54.0592L75.7093 53.7682L64.7412 54.1723L51.5874 54.4794L45.0302 54.1884L36.5891 53.8136C36.3884 53.8047 36.1892 53.7757 35.9943 53.727L31.9554 52.7169L25.4377 51.5365L18.9595 49.4668L10.3745 45.5214L4.66298 42.0867C4.21241 41.8157 3.84098 41.4311 3.58586 40.9714L2.35892 38.7604C2.08987 38.2755 1.96046 37.7256 1.98505 37.1717L2.03069 36.1436C2.07707 35.0989 2.66409 34.1538 3.57999 33.6491L6.38254 32.1049C6.52411 32.0269 6.67174 31.9605 6.82402 31.9063L10.7824 30.4969C10.9575 30.4346 11.138 30.3886 11.3216 30.3597L19.8675 29.0127L30.8751 27.7192L39.6969 26.3287L48.0764 25.008C48.3697 24.9617 48.6545 24.8722 48.9215 24.7424L54.9822 21.7945C55.1496 21.7131 55.309 21.6162 55.4585 21.5053L59.2361 18.7003C59.5834 18.4424 59.8708 18.1125 60.0786 17.7332L62.1463 13.9594L64.214 10.1856C64.4218 9.80629 64.7092 9.47639 65.0565 9.21853L68.6989 6.51396C68.9375 6.33678 69.2011 6.19605 69.4811 6.09636L73.5092 4.66217L79.7501 2.4401C80.0382 2.33752 80.3403 2.2796 80.6459 2.26834L91.1529 1.88117L99.3094 2.24325C99.6966 2.26045 100.077 2.35252 100.429 2.51438L106.335 5.2283L112.773 8.18731L119.212 11.1463L125.397 13.9887C125.566 14.0663 125.741 14.128 125.922 14.1731L134.315 16.2721L142.907 17.5446L153.947 18.0346L162.729 17.5334L169.326 16.9352L175.581 17.2129C175.782 17.2218 175.981 17.2509 176.176 17.2996L180.215 18.3097L188.675 19.5514C188.837 19.5752 188.997 19.6121 189.152 19.6619L201.875 23.7265L207.75 26.4267C208.122 26.5974 208.454 26.8423 208.728 27.1464Z" stroke="#F47D54" stroke-width="3"/>
</svg>
