<svg width="157" height="177" viewBox="0 0 157 177" fill="none" xmlns="http://www.w3.org/2000/svg">
<path d="M9.94983 75.7659C11.8032 76.206 13.5606 78.1326 15.3852 78.8981C18.7788 80.3218 22.9394 81.1232 26.588 81.3978C29.3398 81.6049 32.0627 81.5307 34.8014 82.0001C36.6575 82.3183 38.4488 83.0314 40.2669 83.506C43.0368 84.2291 45.8481 84.6958 48.6766 85.1173C55.8364 86.1844 63.0541 86.6908 70.2518 87.3912C71.1981 87.4832 72.6697 87.2692 72.743 88.4754C72.9277 91.5148 73.2714 94.487 73.2714 97.5407C73.2714 102.861 72.7279 108.139 72.7279 113.473C72.7279 121.394 72.9997 129.354 72.9997 137.296C72.9997 147.174 72.9997 157.053 72.9997 166.931C72.9997 167.235 72.8322 167.991 73.2412 168.136C73.3053 168.159 74.1853 168.255 73.6338 168.136C72.5912 167.911 71.5988 168.026 70.5538 167.91C66.3548 167.445 62.2773 166.113 58.0676 165.606C53.0576 165.003 48.1094 164.265 43.1657 163.257C37.561 162.114 32.2215 160.569 26.4823 160.32C22.7035 160.157 19.0818 159.236 15.3852 158.709C13.71 158.47 14.0263 156.175 14.0263 155.065C14.0263 152.693 13.7546 150.345 13.7546 147.987C13.7546 147.727 13.3821 146.598 13.6338 146.527C13.9987 146.423 14.6222 146.613 14.9624 146.647C17.0612 146.856 19.1965 146.915 21.3036 146.993C24.3555 147.107 26.7111 145.738 28.8527 143.65C29.7109 142.814 31.8825 139.971 30.9664 140.744C29.8672 141.672 29.1338 142.975 28.0223 143.906C26.7846 144.943 25.3559 145.584 23.9458 146.331C21.0447 147.868 30.4141 143.918 32.431 141.331C33.5344 139.916 35.4992 136.807 35.3751 134.826C35.3453 134.351 34.8305 135.608 34.5598 136.001C33.9623 136.866 33.2501 137.638 32.5064 138.38C32.4441 138.442 30.9718 139.836 30.906 139.705C30.6924 139.279 32.3318 136.873 32.5064 136.543C34.9519 131.923 36.5829 127.245 36.5829 121.996C36.5829 118.897 36.0361 114.646 33.6539 112.358C31.8251 110.602 28.7932 109.433 26.5729 108.187C26.0411 107.889 24.5014 106.925 24.9574 107.329C26.8399 108.998 29.5519 109.974 31.6911 111.274C33.3617 112.29 33.5725 113.447 34.4088 115.069C34.6734 115.582 34.6512 115.39 34.2578 114.918C33.1401 113.577 31.7942 112.277 30.3927 111.229C29.8809 110.846 29.3732 110.913 28.7772 110.822C27.5082 110.631 26.2789 109.951 25.0933 109.497C22.0762 108.343 18.9607 107.191 15.7475 106.727C15.0093 106.62 14.3153 106.437 13.5734 106.335C11.3416 106.028 12.1429 104.619 12.124 102.48C12.0686 96.2183 10.062 89.9778 10.9312 83.7168C11.049 82.8682 11.066 80.8718 11.7465 80.2383C12.6138 79.4309 14.8443 79.8485 15.9136 79.8166C17.3568 79.7737 18.7884 79.5052 20.2166 79.3498C23.641 78.9772 27.8396 80.8275 31.0872 81.7291C35.1256 82.8502 39.2668 83.5415 43.362 84.4246C44.4903 84.6679 45.6872 84.9517 46.8497 84.9517C46.9072 84.9517 45.1075 84.5097 44.7963 84.4397C40.9951 83.5836 48.9231 85.7221 46.6232 84.5752C45.2294 83.8801 46.2445 84.1546 47.0611 84.3644C49.4101 84.9678 51.5762 85.9706 53.7344 87.0599C57.2427 88.8305 61.0024 90.4391 64.3333 92.5262C65.5603 93.295 65.1184 95.1157 65.1184 96.3661C65.1184 103.375 65.0767 110.34 65.7224 117.328C66.5119 125.872 66.2528 134.364 66.4773 142.928C66.6531 149.637 66.749 156.335 66.749 163.046" stroke="#4F3A5A" stroke-width="4" stroke-linecap="round"/>
<path d="M66.749 162.775C58.9162 159.605 50.77 157.623 42.3806 156.872C36.2356 156.321 30.2199 154.618 24.1723 153.469C22.6408 153.178 20.518 153.353 19.0691 152.686C17.5215 151.973 15.9289 150.22 14.6302 149.102C13.8695 148.446 12.6675 146.421 12.6675 145.427C12.6675 145.213 12.7261 145.155 12.9392 145.322C14.8806 146.837 16.6245 147.796 19.0842 148.409C23.4849 149.506 28.1427 149.656 32.6121 150.397C38.465 151.366 44.2705 152.487 50.1562 153.258C53.35 153.676 56.5304 154.121 59.7133 154.613C59.8215 154.63 61.7085 154.937 62.129 154.914C62.6553 154.886 62.2361 154.521 62.0686 154.372C55.4618 148.507 46.1263 146.953 37.8512 144.78C36.2517 144.36 34.646 143.963 33.05 143.53C32.1294 143.28 31.201 143.05 30.3021 142.732C29.9774 142.617 29.2153 142.527 29.3962 142.235C29.6343 141.85 30.2869 142.042 30.74 142.024C31.8212 141.981 32.9058 141.992 33.9861 142.054C37.8036 142.274 41.0644 142.717 44.8567 143.349C50.7374 144.329 56.4365 145.722 62.431 145.759C63.197 145.763 65.4321 145.934 64.7259 145.638C63.0222 144.924 61.1283 144.788 59.3509 144.283C53.7016 142.678 47.8191 141.005 42.6675 138.109C36.1384 134.438 47.8787 135.467 48.8728 135.519C52.209 135.694 55.5291 136.139 58.8678 136.257C60.0377 136.298 62.7334 136.588 60.1813 135.172C54.6672 132.113 48.2569 130.995 42.6222 128.185C42.3494 128.049 41.5986 127.688 41.8975 127.628C42.4856 127.509 43.0801 127.836 43.664 127.974C44.9026 128.268 46.1271 128.618 47.363 128.923C49.3602 129.416 54.815 130.745 56.9654 131.091C60.281 131.626 57.6028 130.563 56.2407 129.917C53.1927 128.471 48.0781 126.403 45.2795 124.526C43.7492 123.5 41.0726 121.585 44.6453 120.852C47.1841 120.33 52.4129 121.018 54.8819 121.153C57.1509 121.276 58.7217 121.551 55.7878 120.099C54.8082 119.614 44.1435 115.936 44.4642 114.497C44.7644 113.149 56.6572 115.153 58.1884 115.461C63.1814 116.464 62.4545 122.057 60.5588 125.52C59.5849 127.299 59.9759 124.934 59.9398 124.345C59.613 119.022 58.1385 113.9 58.6111 108.518C58.8713 105.556 59.4416 104.105 60.0907 101.29C60.4155 99.8819 61.1814 98.0547 60.0756 96.6673C58.7633 95.0207 54.8199 93.8709 53.3721 93.3393C50.2011 92.1751 44.0216 90.0726 40.901 89.0476C35.7746 87.3637 30.6759 85.81 25.3499 84.8914C24.2198 84.6965 17.0579 82.8416 15.9891 84.2288C15.3083 85.1124 15.8681 86.4641 15.9891 87.5719C16.157 89.1103 16.5803 92.0729 16.9252 93.5953C17.3377 95.4167 18.1908 96.7415 18.9483 98.384C19.5628 99.7164 23.3025 106.487 23.055 101.14C22.8995 97.7787 20.7584 94.6711 20.7903 91.3666C20.8038 89.9679 21.4742 89.8334 22.6474 90.6288C24.776 92.0718 26.9366 95.1873 28.3092 97.0287C31.3415 101.097 34.0243 105.68 37.6096 109.317C39.1052 110.834 38.8746 109.631 38.2437 108.323C36.8307 105.393 34.5983 102.232 32.5668 99.7694C30.7324 97.5454 24.2036 91.9188 26.6333 93.4749C33.7811 98.0525 39.7582 104.588 45.355 110.868C46.5833 112.246 47.7213 113.703 48.9634 115.069C50.713 116.993 50.6464 116.404 49.1144 113.955C46.6861 110.072 43.9124 106.423 40.8406 103.022C38.948 100.927 36.5103 99.3672 34.6202 97.2696C33.377 95.8901 37.92 98.9828 39.5422 99.8899C44.5088 102.667 45.9 103.526 50.6846 106.516C52.7294 107.793 54.5995 109.171 51.983 107.148C47.173 103.43 46.2184 102.789 41.203 98.8056C41.0567 98.6895 31.4755 91.9729 38.908 95.568C44.0156 98.0385 45.0284 98.7848 50.443 101.215C52.151 101.982 53.8677 102.74 55.6368 103.353C56.2096 103.552 57.6161 104.216 57.4335 103.639C57.1733 102.818 56.0458 102.597 55.2744 102.209C53.3959 101.263 51.4588 100.433 49.5069 99.6489C45.706 98.1216 41.3858 96.6039 37.368 95.5981C31.19 94.0516 38.4583 97.253 39.1043 96.3812C39.3337 96.0716 38.5555 95.8218 38.2135 95.6433C35.8138 94.3912 33.2046 93.5746 30.7852 92.3605C28.8521 91.3904 23.9489 87.6853 26.1048 87.873C28.7838 88.1063 31.0516 90.4347 33.05 92.0292" stroke="#4F3A5A" stroke-width="4" stroke-linecap="round"/>
<path d="M82.5115 86.6081C80.8737 87.1526 85.3192 87.9333 85.6217 87.9333C89.0423 87.9333 91.4538 87.0123 94.5296 85.8552C96.8735 84.9733 99.7078 84.5708 102.184 84.3192C107.454 83.7839 112.706 83.1674 117.992 82.8133C123.586 82.4386 129.62 82.6254 135.068 81.187C135.771 81.0013 139.9 79.0723 140.126 79.7112C140.659 81.2162 140.375 83.2334 140.458 84.801C140.519 85.944 140.67 87.0588 140.67 88.2043C140.67 91.0872 140.362 93.8359 139.854 96.6673C139.655 97.775 139.661 98.9062 139.462 100.01C139.088 102.079 136.966 102.509 135.219 103.127C131.781 104.344 129.397 105.915 126.598 108.232C124.444 110.016 123.018 112.207 122.235 114.903C121.727 116.65 120.996 121.988 121.767 120.34C122.776 118.181 123.451 115.472 124.937 113.578C125.004 113.493 126.005 112.501 126.024 112.539C126.417 113.323 124.035 116.559 123.669 117.237C121.508 121.248 121.188 125.764 123.337 129.827C125.753 134.395 130.211 137.803 134.63 140.277C136.611 141.386 138.351 142.429 139.582 144.358C140.886 146.402 140.519 147.81 140.79 150.186C141.025 152.24 144.575 159.773 141.545 160.727C136.663 162.265 131.229 161.827 126.221 163.031C121.894 164.071 117.551 164.556 113.13 165.004C108.715 165.451 104.293 165.603 99.8894 166.178C96.0607 166.678 91.8968 167.018 88.1582 167.925C86.8938 168.232 85.7788 168.823 84.5648 169.25C84.0194 169.442 83.4812 165.38 83.3872 164.733C83.1748 163.271 83.5381 161.879 83.8703 160.471C84.5483 157.597 84.4056 154.671 84.4138 151.722C84.4504 138.541 84.4138 125.359 84.4138 112.178C84.4138 106.837 84.4138 101.496 84.4138 96.1553C84.4138 94.9362 84.6191 93.4779 84.3685 92.2702C84.2423 91.6616 83.325 91.704 84.4742 91.9389C99.3787 94.9851 114.596 88.7765 129.527 88.7765C131.215 88.7765 134.319 89.7574 134.404 91.6678C134.541 94.7521 134.124 98.6957 131.127 100.372C128.09 102.07 124.294 102.494 120.891 102.149C119.357 101.993 115.488 101.239 113.976 100.733C110.869 99.6941 112.237 98.592 114.55 97.616C118.462 95.9652 122.858 95.2422 127.096 95.3722C127.189 95.3751 129.493 95.2029 128.168 96.0499C125.485 97.7654 121.742 98.847 118.687 99.5284C112.722 100.859 106.456 100.54 100.388 100.643C99.4531 100.659 95.5949 101.327 94.5447 100.447C93.7689 99.797 93.2517 98.7851 92.3555 98.2786C91.0646 97.549 90.3857 100.917 90.3021 101.426C89.889 103.94 90.0867 106.607 90.6947 109.076C91.5266 112.454 96.6554 110.785 99.0892 110.551C104.967 109.988 110.897 108.835 116.814 108.835C117.047 108.835 118.794 108.91 117.811 108.293C113.571 105.631 107.308 106.264 102.607 106.696C100.597 106.881 98.029 106.952 96.0545 107.585C92.9061 108.594 92.2953 113.662 91.9025 116.364C91.4957 119.163 91.6274 122.04 91.4194 124.857C91.3528 125.759 90.9208 126.746 91.2986 127.568C91.3539 127.688 91.5452 127.439 91.6156 127.327C92.2681 126.285 92.6513 125.095 93.2613 124.029C96.1442 118.989 100.324 116.242 106.11 115.355C106.661 115.271 121.471 114.677 118.566 117.81C115.441 121.179 108.972 121.344 104.827 121.695C103.472 121.809 99.4685 121.893 97.9116 122.418C95.591 123.199 94.9469 125.429 94.2427 127.477C93.428 129.848 92.6725 132.211 92.28 134.69C91.5992 138.99 90.7236 143.484 90.5135 147.837C90.3542 151.136 91.1959 154.252 91.8723 157.444C91.967 157.891 92.0104 161.757 92.5064 162.022C93.0171 162.295 94.7813 162.203 94.8919 162.203C97.6422 162.203 100.068 162.142 102.864 161.992C110.763 161.569 118.754 160.803 126.538 159.342C129.074 158.865 133.209 158.422 134.932 156.059C135.866 154.778 135.082 152.901 134.585 151.616C133.198 148.033 130.654 145.808 127.896 143.259C124.769 140.368 122.443 136.911 119.562 133.802C117.012 131.05 116.996 131.384 114.399 128.803C112.433 126.848 111.025 124.474 109.084 122.523C106.907 120.334 103.069 118.331 100.901 121.74C98.7446 125.131 99.0294 130.561 98.7571 134.434C98.423 139.186 98.0571 143.974 98.2437 148.74C98.397 152.655 98.1777 157.243 102.773 158.212C107.855 159.284 113.586 159.218 118.732 158.709C121.915 158.394 124.205 157.377 126.719 155.547C128.567 154.201 128.572 152.981 127.353 150.939C126.49 149.493 123.342 145.403 122.491 144.283C119.981 140.976 117.545 137.567 114.655 134.57C112.09 131.909 109.126 129.581 106.216 127.312C105.918 127.08 104.321 125.723 103.619 125.58C101.941 125.239 102.17 128.755 102.048 130.459C101.607 136.664 102.402 142.542 104.192 148.469C104.586 149.771 104.781 151.144 105.34 152.384C106.102 154.076 108.895 154.219 110.352 154.447C112.44 154.775 118.382 156.081 119.713 153.393C120.345 152.119 119.609 150.49 119.155 149.388C117.845 146.213 115.868 143.319 114.187 140.337C113.709 139.488 110.652 132.192 108.692 133.17C107.602 133.713 107.792 136.897 107.816 137.265C108.065 141.051 109.166 144.842 110.398 148.409C110.888 149.828 111.921 151.367 112.24 152.851C112.42 153.691 112.479 154.763 112.678 155.456" stroke="#4F3A5A" stroke-width="4" stroke-linecap="round"/>
<path d="M88.4681 34.7483C90.9062 35.5059 93.5027 36.156 95.6354 37.6235C96.2422 38.0411 96.5485 38.1441 97.2544 38.4703C100.214 39.8377 102.533 42.0752 104.639 44.516C105.409 45.4084 106.978 47.4533 107.739 48.4546C108.438 49.3754 109.481 50.4574 109.851 51.5956C110.158 52.5356 109.953 53.7169 109.526 54.5889C108.966 55.7303 107.216 55.1723 106.317 54.8351C105.786 54.6358 105.463 54.4376 105.054 54.0868C104.986 54.0292 104.843 53.8222 104.856 53.9095C104.969 54.6713 105.186 55.5333 105.458 56.253C105.719 56.9402 106.227 57.5734 106.811 58.0155C107.458 58.5057 108.537 58.6071 109.042 59.2463C109.953 60.4007 110.846 61.5915 112.201 62.279C113.017 62.6929 113.921 62.9685 114.778 63.2833C115.55 63.5673 116.737 64.2387 117.591 63.9332C118.32 63.6724 118.96 63.1094 119.645 62.7516C120.482 62.3144 121.046 62.0751 121.441 61.1762C122.437 58.9128 122.001 57.096 121.728 54.7071C121.382 51.6897 122.071 48.6809 120.869 45.7763C119.7 42.9519 118.03 40.4122 117.009 37.5053C116.133 35.0112 116.158 31.8569 114.551 29.6872C112.887 27.4414 110.356 25.7817 108.489 23.6907C106.046 20.9546 103.649 18.508 100.177 17.0837C94.3707 14.7023 88.3653 12.8476 82.3967 10.9297C80.0578 10.1781 77.457 8.99834 74.9727 8.84226C72.3287 8.67614 70.2914 11.2583 68.3879 12.6922C65.4531 14.9031 62.6428 15.38 58.9895 15.2523C55.5955 15.1337 55.5084 14.8825 52.2369 14.7206C51.2677 14.6726 49.6826 14.567 48.7026 15.0751C46.9885 15.9638 46.3352 18.5597 45.6422 20.1558C44.1823 23.5185 41.8832 26.2342 39.5609 29.0374C37.3637 31.6896 35.0556 34.3338 33.2822 37.2985C31.8981 39.6125 31.4262 42.0056 31.4262 44.6735C31.4262 45.6598 31.4826 46.6344 32.0185 47.4896C32.4955 48.2508 33.0849 48.8451 33.2229 49.7838C33.6633 52.7783 32.5131 55.9523 32.7096 58.9903C32.7768 60.0289 33.0101 61.0464 33.3019 62.0427C34.0249 64.5109 31.9757 57.0678 31.5052 54.5397C30.8943 51.2577 30.1103 47.262 31.7915 44.1418C33.1249 41.667 35.1322 42.3378 36.8164 43.9843C37.936 45.0788 38.5867 46.184 40.1928 46.5247C40.928 46.6806 41.2222 46.6382 41.9105 46.9579C42.5292 47.2453 42.7514 47.7642 43.2729 48.1296C44.4508 48.9552 45.8624 45.8769 46.0865 45.3726C47.3762 42.4712 47.6582 38.7326 44.2305 37.1902C42.8193 36.5552 41.2878 36.5011 39.8077 36.8357C38.9213 37.0361 38.3244 37.5211 39.6991 37.6432C44.3745 38.0584 48.2543 35.1305 49.7294 30.8491C50.7899 27.7708 50.6973 24.3383 51.8618 21.298C53.4981 17.0259 59.8434 17.6264 63.4913 17.0148C64.9383 16.7722 71.1719 16.014 69.3159 12.9876C68.2168 11.1953 66.2521 11.3948 64.4785 11.5894C61.4235 11.9246 58.4795 11.2695 55.4355 11.363C50.2114 11.5233 66.2881 11.296 70.9152 8.8718C71.8297 8.39268 72.5556 7.43778 73.6202 7.27667C75.4399 7.00131 77.3773 7.3303 79.1684 7.64099C83.3842 8.37224 87.6555 9.11198 91.6667 10.6442C94.9705 11.9061 97.8438 13.9337 100.808 15.8234C104.311 18.0557 107.404 20.4267 109.802 23.868C110.684 25.1332 111.106 26.4773 111.372 27.9936C112.075 32.0045 112.258 36.0642 113.07 40.0654C113.749 43.4107 114.351 46.6694 114.511 50.0891C114.548 50.8744 114.59 53.1867 114.59 54.1064C114.59 54.3941 114.681 55.6199 114.393 54.7169C114.074 53.7175 113.59 53.0651 112.961 52.2061C111.439 50.1254 110.597 49.0152 109.121 46.6625C106.83 43.0104 105.213 39.4005 103.691 35.3982C101.968 30.8678 99.2642 27.8582 95.1812 25.1972C94.2856 24.6135 91.6765 23.2616 92.1208 24.2323C92.5479 25.1653 93.3371 25.8923 94.0361 26.6447C96.5009 29.2981 99.9659 32.2901 102.546 34.7385C106.534 38.5227 110.702 42.3999 112.635 47.6767C113.152 49.0874 113.26 49.8888 113.692 51.31C114.284 53.2572 115.109 55.1193 115.716 57.0604C115.961 57.8453 116.815 59.9846 115.419 58.5767C112.102 55.2305 107.529 53.8514 103.464 51.6547C101.037 50.3433 98.9055 48.7109 96.3659 47.5979C94.0216 46.5705 91.715 45.5509 89.4158 44.4274C87.4313 43.4576 85.4083 42.8584 83.2852 42.2808C80.5801 41.545 78.2341 40.2574 75.8514 38.805C70.6695 35.6466 65.1163 32.2564 58.7921 33.9704C56.7155 34.5333 54.8702 36.4003 52.9082 37.3281C49.7046 38.8431 44.6636 38.2848 44.112 34.0492C43.813 31.7526 45.4251 30.0013 47.4686 29.2343C48.9671 28.6718 50.2613 28.5183 51.8618 28.7223C54.1508 29.0139 55.6481 30.4252 57.7456 31.1445C62.1173 32.6436 67.1192 31.7694 71.6458 32.2867C74.5834 32.6224 76.1348 33.0495 78.9512 33.7833C80.5257 34.1936 84.2985 35.291 78.7637 33.2418C74.8443 31.7907 71.4851 30.6954 67.4698 29.3918C66.5489 29.0929 60.1523 27.1465 58.5157 26.3788C56.4167 25.3942 58.2682 25.3218 59.4832 25.2169C64.0466 24.8232 68.6897 25.2716 73.2451 25.532C74.4198 25.5992 75.593 25.711 76.7695 25.7289C77.3138 25.7373 78.0553 26.0324 78.3984 25.6108C78.6485 25.3035 77.8056 25.069 77.4507 24.892C76.4547 24.3953 75.3857 24.0586 74.3705 23.6021C73.2098 23.0802 71.9636 22.6924 70.9251 21.9577C70.4226 21.6023 69.5179 20.9224 69.8885 20.4315C70.8365 19.1758 77.5089 19.2148 77.7468 19.2106C79.0438 19.1875 80.3394 19.3133 81.6365 19.3287C81.9924 19.333 82.9351 19.5386 82.7027 19.2697C82.3453 18.8562 81.6651 18.9212 81.1429 18.7576C80.3027 18.4945 79.4537 18.2595 78.6156 17.9896C78.2866 17.8837 75.6981 17.1789 77.9838 17.3988C82.0291 17.7882 86.3448 18.3697 90.176 19.7718C93.7056 21.0636 96.1594 23.7569 99.1795 25.8373C100.736 26.9095 102.287 27.554 103.612 28.9586C104.375 29.7671 105.911 31.6101 106.574 32.5033C106.868 32.8992 107.595 33.9551 107.107 33.8818C105.421 33.6287 103.892 32.7407 102.25 32.2867C97.3736 30.9391 92.572 30.1414 87.5105 30.7999C84.5143 31.1897 85.1069 31.3542 82.9989 32.0208C82.5082 32.176 82.8752 31.7292 82.6139 31.3907C81.6008 30.0784 79.5299 28.8606 78.2997 28.0822C75.9491 26.595 73.493 25.3209 71.2311 23.7006C67.3727 20.9365 62.9636 18.9847 58.8316 16.6702C57.3333 15.831 55.54 14.2296 53.8165 13.6867C53.2079 13.495 55.0021 14.1619 55.5737 14.4449C59.9415 16.6074 63.5218 19.9825 66.9071 23.4249C67.3943 23.9203 69.9697 26.0408 70.0267 27.1074C70.1001 28.4793 67.5392 29.8434 66.5813 30.3666C65.3503 31.039 65.0289 31.2409 64.4983 32.6018C64.2171 33.323 64.3398 34.1208 63.7282 34.7089C63.3474 35.0752 62.5835 34.9255 62.0993 34.9255C60.135 34.9255 66.0404 35.6503 67.7364 36.6388C69.5323 37.6856 71.1564 38.5216 72.791 39.8192C75.3005 41.8114 78.5874 43.1527 81.5378 44.3388C85.7312 46.0245 89.9726 47.1594 94.352 48.238C96.2045 48.6942 98.7521 48.9122 100.374 49.9906" stroke="#EFD862" stroke-width="4" stroke-linecap="round"/>
<path d="M126.923 65.7846C127.51 61.2959 128.859 56.7781 127.994 52.2288C127.281 48.475 126.042 44.4974 124.848 40.8766C121.585 30.987 117.905 20.7259 109.716 13.6981C102.585 7.57767 91.9587 3.84067 82.9354 1.61137C77.4871 0.265329 73.1468 1.12636 68.6075 4.34925C64.7566 7.08341 59.8621 5.37257 55.284 6.2858C48.8396 7.5713 46.0198 10.1964 41.8265 14.9669C34.5373 23.2594 28.9714 32.0405 27.7665 43.2806C27.3193 47.4523 28.1958 51.2633 28.5699 55.3673C28.7706 57.5691 28.0532 61.0838 29.1725 63.1135C30.416 65.3685 37.0485 66.3856 39.4162 66.3856C41.8488 66.3856 38.4093 60.4731 38.1441 59.6411C37.8117 58.598 37.193 46.0137 39.2154 48.4892C40.0477 49.508 44.6948 56.3243 46.1784 55.9015C47.7381 55.4571 49.1066 50.3035 49.9278 48.9567C51.2391 46.8059 52.7649 44.5752 54.3466 42.6128C56.1231 40.4088 60.23 41.0247 62.7157 41.2773C66.7199 41.684 68.9269 43.3172 71.7543 45.9517C79.3371 53.0171 88.2555 51.5331 97.4641 54.3657C103.271 56.1518 103.841 63.082 108.11 66.8531C111.376 69.7386 116.695 69.3559 120.764 69.3906C122.653 69.4067 125.572 70.3009 124.513 68.1886" stroke="black" stroke-width="2" stroke-linecap="round"/>
<path d="M77.7901 82.1407L110.672 78.0079L143.553 73.8751" stroke="black" stroke-width="2" stroke-linecap="round"/>
<path d="M12.0056 71.5318L44.6548 77.208L77.304 82.8842" stroke="black" stroke-width="2" stroke-linecap="round"/>
<path d="M144.398 72.9966C144.398 80.8541 144.398 88.7116 144.398 96.5691C144.398 97.8603 143.644 102.002 144.498 103.28C145.076 104.145 148.184 105.115 149.219 105.918C150.573 106.969 151.803 108.387 152.834 109.758C159.844 119.08 154.132 130.979 146.206 137.303" stroke="black" stroke-width="2" stroke-linecap="round"/>
<path d="M145.603 137.303C145.603 144.805 145.603 152.306 145.603 159.807C145.603 162.06 146.138 164.249 144.398 165.55" stroke="black" stroke-width="2" stroke-linecap="round"/>
<path d="M80.1395 174.292L142.759 165.264" stroke="black" stroke-width="2" stroke-linecap="round"/>
<path d="M78.4682 174.467L77.7901 83.2483" stroke="black" stroke-width="2" stroke-linecap="round"/>
<path d="M7.30673 162.921L78.9648 174.637" stroke="black" stroke-width="2" stroke-linecap="round"/>
<path d="M8.21631 160.742C8.21631 154.131 8.21631 147.52 8.21631 140.909C8.21631 138.309 8.20523 136.857 6.4086 134.866C0.258343 125.428 0.649916 125.428 1.43309 119.57C1.82131 116.666 2.91335 113.407 4.95724 111.368C8.33741 107.997 6.37762 104.262 6.4086 98.6392C6.44232 92.5184 6.4086 86.3964 6.4086 80.2754C6.4086 77.469 5.5276 72.9815 8.21631 71.1937" stroke="black" stroke-width="2" stroke-linecap="round"/>
<path d="M6.63055 112.634C8.83361 111.681 11.8748 111.554 14.2607 111.616C16.9432 111.685 19.8973 112.257 22.3296 113.404C24.1221 114.25 25.804 115.942 27.1367 117.371C28.1267 118.432 29.1817 119.654 29.6737 121.043C30.1471 122.38 29.8356 123.911 29.6355 125.267C29.1051 128.862 28.0959 132.486 26.0875 135.55C23.7685 139.087 20.4942 140.749 16.2255 140.23C13.9165 139.95 10.6528 139.615 8.6907 138.147" stroke="black" stroke-width="2.16437" stroke-linecap="round"/>
<path d="M144.145 104.072C141.502 106.803 137.891 108.078 134.884 110.265C131.156 112.976 128.011 117.496 128.074 122.232C128.197 131.386 135.961 137.937 144.661 138.661" stroke="black" stroke-width="2.16437" stroke-linecap="round"/>
<path d="M63.4422 61.3416C62.5354 61.7649 61.6384 63.5802 62.7278 64.3851C63.4446 64.9147 64.1148 63.2042 64.3141 62.8634" stroke="black" stroke-width="2.16437" stroke-linecap="round"/>
<path d="M89.598 62.646C89.2076 62.7382 87.1061 64.394 87.7332 64.6025C88.121 64.7314 88.3605 64.5768 88.7261 64.8199" stroke="black" stroke-width="2.16437" stroke-linecap="round"/>
<path d="M93.9859 21.2073C90.7857 20.9356 87.5928 20.5868 84.3927 20.3119C83.7691 20.2583 69.5037 18.5846 78.7239 21.591C83.2331 23.0613 88.1177 23.8317 92.4982 25.6588C92.755 25.7659 93.3145 26.1549 93.0625 26.2728C92.3951 26.5848 91.5936 26.4324 90.8566 26.4263C88.4627 26.4063 85.6042 26.0925 83.2127 25.9146C81.3617 25.777 79.4896 25.6504 82.4689 26.81C84.5388 27.6157 89.5981 29.7409 91.4722 27.4496C91.9381 26.88 91.5613 24.5171 91.6261 25.2494C91.758 26.7405 92.459 27.4717 93.0625 28.5753" stroke="#EFD862" stroke-width="2.16437" stroke-linecap="round"/>
<path d="M115.939 126.996C116.143 125.547 116.042 126.442 116.15 124.375C116.203 123.357 116.072 119.514 116.845 123.487C117.412 126.406 117.814 129.369 118.928 132.146" stroke="#4F3A5A" stroke-width="4" stroke-linecap="round"/>
</svg>
