<svg width="280" height="265" viewBox="0 0 280 265" fill="none" xmlns="http://www.w3.org/2000/svg">
<path d="M13.0241 199.091V234H5.64347V199.091H13.0241ZM26.2216 218.864V234H18.9602V207.818H25.8807V212.438H26.1875C26.767 210.915 27.7386 209.71 29.1023 208.824C30.4659 207.926 32.1193 207.477 34.0625 207.477C35.8807 207.477 37.4659 207.875 38.8182 208.67C40.1705 209.466 41.2216 210.602 41.9716 212.08C42.7216 213.545 43.0966 215.295 43.0966 217.33V234H35.8352V218.625C35.8466 217.023 35.4375 215.773 34.608 214.875C33.7784 213.966 32.6364 213.511 31.1818 213.511C30.2045 213.511 29.3409 213.722 28.5909 214.142C27.8523 214.562 27.2727 215.176 26.8523 215.983C26.4432 216.778 26.233 217.739 26.2216 218.864ZM62.7457 207.818V213.273H46.9787V207.818H62.7457ZM50.5582 201.545H57.8196V225.955C57.8196 226.625 57.9219 227.148 58.1264 227.523C58.331 227.886 58.6151 228.142 58.9787 228.29C59.3537 228.437 59.7855 228.511 60.2741 228.511C60.6151 228.511 60.956 228.483 61.2969 228.426C61.6378 228.358 61.8991 228.307 62.081 228.273L63.223 233.676C62.8594 233.79 62.348 233.92 61.6889 234.068C61.0298 234.227 60.2287 234.324 59.2855 234.358C57.5355 234.426 56.0014 234.193 54.6832 233.659C53.3764 233.125 52.3594 232.295 51.6321 231.17C50.9048 230.045 50.5469 228.625 50.5582 226.909V201.545ZM79.1264 234.511C76.4332 234.511 74.1151 233.966 72.1719 232.875C70.2401 231.773 68.7514 230.216 67.706 228.205C66.6605 226.182 66.1378 223.79 66.1378 221.028C66.1378 218.335 66.6605 215.972 67.706 213.938C68.7514 211.903 70.223 210.318 72.1207 209.182C74.0298 208.045 76.2685 207.477 78.8366 207.477C80.5639 207.477 82.1719 207.756 83.6605 208.312C85.1605 208.858 86.4673 209.682 87.581 210.784C88.706 211.886 89.581 213.273 90.206 214.943C90.831 216.602 91.1435 218.545 91.1435 220.773V222.767H69.0355V218.267H84.3082C84.3082 217.222 84.081 216.295 83.6264 215.489C83.1719 214.682 82.5412 214.051 81.7344 213.597C80.9389 213.131 80.0128 212.898 78.956 212.898C77.8537 212.898 76.8764 213.153 76.0241 213.665C75.1832 214.165 74.5241 214.841 74.0469 215.693C73.5696 216.534 73.3253 217.472 73.3139 218.506V222.784C73.3139 224.08 73.5526 225.199 74.0298 226.142C74.5185 227.085 75.206 227.812 76.0923 228.324C76.9787 228.835 78.0298 229.091 79.2457 229.091C80.0526 229.091 80.7912 228.977 81.4616 228.75C82.1321 228.523 82.706 228.182 83.1832 227.727C83.6605 227.273 84.0241 226.716 84.2741 226.057L90.9901 226.5C90.6491 228.114 89.9503 229.523 88.8935 230.727C87.848 231.92 86.4957 232.852 84.8366 233.523C83.1889 234.182 81.2855 234.511 79.1264 234.511ZM103.143 199.091V234H95.8821V199.091H103.143ZM116.222 199.091V234H108.96V199.091H116.222ZM133.97 234.511C131.277 234.511 128.959 233.966 127.016 232.875C125.084 231.773 123.595 230.216 122.55 228.205C121.504 226.182 120.982 223.79 120.982 221.028C120.982 218.335 121.504 215.972 122.55 213.938C123.595 211.903 125.067 210.318 126.964 209.182C128.874 208.045 131.112 207.477 133.68 207.477C135.408 207.477 137.016 207.756 138.504 208.312C140.004 208.858 141.311 209.682 142.425 210.784C143.55 211.886 144.425 213.273 145.05 214.943C145.675 216.602 145.987 218.545 145.987 220.773V222.767H123.879V218.267H139.152C139.152 217.222 138.925 216.295 138.47 215.489C138.016 214.682 137.385 214.051 136.578 213.597C135.783 213.131 134.857 212.898 133.8 212.898C132.697 212.898 131.72 213.153 130.868 213.665C130.027 214.165 129.368 214.841 128.891 215.693C128.413 216.534 128.169 217.472 128.158 218.506V222.784C128.158 224.08 128.396 225.199 128.874 226.142C129.362 227.085 130.05 227.812 130.936 228.324C131.822 228.835 132.874 229.091 134.089 229.091C134.896 229.091 135.635 228.977 136.305 228.75C136.976 228.523 137.55 228.182 138.027 227.727C138.504 227.273 138.868 226.716 139.118 226.057L145.834 226.5C145.493 228.114 144.794 229.523 143.737 230.727C142.692 231.92 141.339 232.852 139.68 233.523C138.033 234.182 136.129 234.511 133.97 234.511ZM162.555 234.511C159.874 234.511 157.567 233.943 155.635 232.807C153.714 231.659 152.237 230.068 151.203 228.034C150.18 226 149.669 223.659 149.669 221.011C149.669 218.33 150.186 215.977 151.22 213.955C152.266 211.92 153.749 210.335 155.669 209.199C157.589 208.051 159.874 207.477 162.521 207.477C164.805 207.477 166.805 207.892 168.521 208.722C170.237 209.551 171.595 210.716 172.595 212.216C173.595 213.716 174.146 215.477 174.249 217.5H167.396C167.203 216.193 166.692 215.142 165.862 214.347C165.044 213.54 163.97 213.136 162.641 213.136C161.516 213.136 160.533 213.443 159.692 214.057C158.862 214.659 158.214 215.54 157.749 216.699C157.283 217.858 157.05 219.261 157.05 220.909C157.05 222.58 157.277 224 157.732 225.17C158.197 226.341 158.851 227.233 159.692 227.847C160.533 228.46 161.516 228.767 162.641 228.767C163.47 228.767 164.214 228.597 164.874 228.256C165.544 227.915 166.095 227.42 166.527 226.773C166.97 226.114 167.26 225.324 167.396 224.403H174.249C174.135 226.403 173.589 228.165 172.612 229.688C171.646 231.199 170.311 232.381 168.607 233.233C166.902 234.085 164.885 234.511 162.555 234.511ZM192.824 207.818V213.273H177.057V207.818H192.824ZM180.636 201.545H187.898V225.955C187.898 226.625 188 227.148 188.205 227.523C188.409 227.886 188.693 228.142 189.057 228.29C189.432 228.437 189.864 228.511 190.352 228.511C190.693 228.511 191.034 228.483 191.375 228.426C191.716 228.358 191.977 228.307 192.159 228.273L193.301 233.676C192.938 233.79 192.426 233.92 191.767 234.068C191.108 234.227 190.307 234.324 189.364 234.358C187.614 234.426 186.08 234.193 184.761 233.659C183.455 233.125 182.438 232.295 181.71 231.17C180.983 230.045 180.625 228.625 180.636 226.909V201.545Z" fill="#5C7194"/>
<path d="M205.634 199.091V234H198.253V199.091H205.634ZM233.354 215.284L226.706 215.693C226.592 215.125 226.348 214.614 225.973 214.159C225.598 213.693 225.104 213.324 224.49 213.051C223.888 212.767 223.166 212.625 222.325 212.625C221.2 212.625 220.251 212.864 219.479 213.341C218.706 213.807 218.32 214.432 218.32 215.216C218.32 215.841 218.57 216.369 219.07 216.801C219.57 217.233 220.428 217.58 221.643 217.841L226.382 218.795C228.928 219.318 230.825 220.159 232.075 221.318C233.325 222.477 233.95 224 233.95 225.886C233.95 227.602 233.445 229.108 232.433 230.403C231.433 231.699 230.058 232.71 228.308 233.438C226.57 234.153 224.564 234.511 222.291 234.511C218.825 234.511 216.064 233.79 214.007 232.347C211.962 230.892 210.763 228.915 210.411 226.415L217.553 226.04C217.768 227.097 218.291 227.903 219.121 228.46C219.95 229.006 221.013 229.278 222.308 229.278C223.581 229.278 224.604 229.034 225.376 228.545C226.161 228.045 226.558 227.403 226.57 226.619C226.558 225.96 226.28 225.42 225.734 225C225.189 224.568 224.348 224.239 223.212 224.011L218.678 223.108C216.121 222.597 214.217 221.71 212.967 220.449C211.729 219.187 211.109 217.58 211.109 215.625C211.109 213.943 211.564 212.494 212.473 211.278C213.393 210.062 214.683 209.125 216.342 208.466C218.013 207.807 219.967 207.477 222.206 207.477C225.513 207.477 228.115 208.176 230.013 209.574C231.922 210.972 233.036 212.875 233.354 215.284ZM245.784 199.091V234H238.523V199.091H245.784ZM263.533 234.511C260.839 234.511 258.521 233.966 256.578 232.875C254.646 231.773 253.158 230.216 252.112 228.205C251.067 226.182 250.544 223.79 250.544 221.028C250.544 218.335 251.067 215.972 252.112 213.938C253.158 211.903 254.629 210.318 256.527 209.182C258.436 208.045 260.675 207.477 263.243 207.477C264.97 207.477 266.578 207.756 268.067 208.312C269.567 208.858 270.874 209.682 271.987 210.784C273.112 211.886 273.987 213.273 274.612 214.943C275.237 216.602 275.55 218.545 275.55 220.773V222.767H253.442V218.267H268.714C268.714 217.222 268.487 216.295 268.033 215.489C267.578 214.682 266.947 214.051 266.141 213.597C265.345 213.131 264.419 212.898 263.362 212.898C262.26 212.898 261.283 213.153 260.43 213.665C259.589 214.165 258.93 214.841 258.453 215.693C257.976 216.534 257.732 217.472 257.72 218.506V222.784C257.72 224.08 257.959 225.199 258.436 226.142C258.925 227.085 259.612 227.812 260.499 228.324C261.385 228.835 262.436 229.091 263.652 229.091C264.459 229.091 265.197 228.977 265.868 228.75C266.538 228.523 267.112 228.182 267.589 227.727C268.067 227.273 268.43 226.716 268.68 226.057L275.396 226.5C275.055 228.114 274.357 229.523 273.3 230.727C272.254 231.92 270.902 232.852 269.243 233.523C267.595 234.182 265.692 234.511 263.533 234.511Z" fill="#9F6039"/>
<path d="M68.9498 75.7659C70.8032 76.206 72.5606 78.1326 74.3852 78.8981C77.7788 80.3218 81.9394 81.1232 85.588 81.3978C88.3398 81.605 91.0627 81.5307 93.8014 82.0002C95.6575 82.3183 97.4488 83.0315 99.2669 83.506C102.037 84.2291 104.848 84.6958 107.677 85.1173C114.836 86.1844 122.054 86.6908 129.252 87.3912C130.198 87.4833 131.67 87.2692 131.743 88.4754C131.928 91.5148 132.271 94.487 132.271 97.5407C132.271 102.861 131.728 108.139 131.728 113.473C131.728 121.394 132 129.354 132 137.296C132 147.174 132 157.053 132 166.931C132 167.235 131.832 167.991 132.241 168.136C132.305 168.159 133.185 168.255 132.634 168.136C131.591 167.911 130.599 168.026 129.554 167.91C125.355 167.445 121.277 166.113 117.068 165.606C112.058 165.003 107.109 164.265 102.166 163.257C96.561 162.114 91.2215 160.569 85.4823 160.32C81.7035 160.157 78.0818 159.236 74.3852 158.709C72.71 158.47 73.0263 156.175 73.0263 155.065C73.0263 152.693 72.7546 150.345 72.7546 147.987C72.7546 147.727 72.3821 146.598 72.6338 146.527C72.9987 146.423 73.6222 146.613 73.9624 146.647C76.0612 146.856 78.1965 146.915 80.3036 146.993C83.3555 147.107 85.7111 145.738 87.8527 143.65C88.7109 142.814 90.8825 139.971 89.9664 140.744C88.8672 141.672 88.1338 142.975 87.0223 143.906C85.7846 144.943 84.3559 145.584 82.9458 146.331C80.0447 147.868 89.4141 143.918 91.431 141.331C92.5344 139.916 94.4992 136.807 94.3751 134.826C94.3453 134.351 93.8305 135.608 93.5598 136.001C92.9623 136.866 92.2501 137.638 91.5064 138.38C91.4441 138.442 89.9718 139.836 89.906 139.705C89.6924 139.279 91.3318 136.873 91.5064 136.543C93.9519 131.923 95.5829 127.245 95.5829 121.996C95.5829 118.897 95.0361 114.646 92.6539 112.358C90.8251 110.602 87.7932 109.433 85.5729 108.187C85.0411 107.889 83.5014 106.925 83.9574 107.329C85.8399 108.998 88.5519 109.974 90.6911 111.274C92.3617 112.29 92.5725 113.447 93.4088 115.069C93.6734 115.582 93.6512 115.39 93.2578 114.918C92.1401 113.577 90.7942 112.277 89.3927 111.229C88.8809 110.846 88.3732 110.913 87.7772 110.822C86.5082 110.631 85.2789 109.951 84.0933 109.497C81.0762 108.343 77.9607 107.191 74.7475 106.727C74.0093 106.62 73.3153 106.437 72.5734 106.335C70.3416 106.028 71.1429 104.619 71.124 102.48C71.0686 96.2183 69.062 89.9779 69.9312 83.7169C70.049 82.8682 70.066 80.8718 70.7465 80.2383C71.6138 79.431 73.8443 79.8485 74.9136 79.8167C76.3568 79.7737 77.7884 79.5052 79.2166 79.3498C82.641 78.9772 86.8396 80.8275 90.0872 81.7291C94.1256 82.8503 98.2668 83.5415 102.362 84.4246C103.49 84.6679 104.687 84.9517 105.85 84.9517C105.907 84.9517 104.107 84.5097 103.796 84.4397C99.9951 83.5836 107.923 85.7221 105.623 84.5752C104.229 83.8801 105.244 84.1546 106.061 84.3644C108.41 84.9679 110.576 85.9706 112.734 87.0599C116.243 88.8305 120.002 90.4391 123.333 92.5262C124.56 93.295 124.118 95.1158 124.118 96.3662C124.118 103.375 124.077 110.34 124.722 117.328C125.512 125.872 125.253 134.364 125.477 142.928C125.653 149.637 125.749 156.335 125.749 163.046" stroke="#4F3A5A" stroke-width="4" stroke-linecap="round"/>
<path d="M125.749 162.775C117.916 159.605 109.77 157.623 101.381 156.872C95.2356 156.321 89.2199 154.618 83.1723 153.469C81.6408 153.178 79.518 153.353 78.0691 152.686C76.5215 151.973 74.9289 150.22 73.6302 149.102C72.8695 148.446 71.6675 146.421 71.6675 145.427C71.6675 145.213 71.7261 145.155 71.9392 145.322C73.8806 146.837 75.6245 147.796 78.0842 148.409C82.4849 149.506 87.1427 149.656 91.6121 150.397C97.465 151.366 103.271 152.487 109.156 153.258C112.35 153.676 115.53 154.121 118.713 154.613C118.822 154.63 120.709 154.937 121.129 154.914C121.655 154.886 121.236 154.521 121.069 154.372C114.462 148.507 105.126 146.953 96.8512 144.78C95.2517 144.36 93.646 143.963 92.05 143.53C91.1294 143.28 90.201 143.05 89.3021 142.732C88.9774 142.617 88.2153 142.527 88.3962 142.235C88.6343 141.85 89.2869 142.042 89.74 142.024C90.8212 141.981 91.9058 141.992 92.9861 142.054C96.8036 142.274 100.064 142.717 103.857 143.349C109.737 144.329 115.436 145.722 121.431 145.759C122.197 145.763 124.432 145.934 123.726 145.638C122.022 144.924 120.128 144.788 118.351 144.283C112.702 142.678 106.819 141.005 101.667 138.109C95.1384 134.438 106.879 135.467 107.873 135.519C111.209 135.694 114.529 136.139 117.868 136.257C119.038 136.298 121.733 136.588 119.181 135.172C113.667 132.113 107.257 130.995 101.622 128.185C101.349 128.049 100.599 127.688 100.897 127.628C101.486 127.509 102.08 127.836 102.664 127.974C103.903 128.268 105.127 128.618 106.363 128.923C108.36 129.416 113.815 130.745 115.965 131.091C119.281 131.626 116.603 130.563 115.241 129.917C112.193 128.471 107.078 126.403 104.279 124.526C102.749 123.5 100.073 121.585 103.645 120.852C106.184 120.33 111.413 121.018 113.882 121.153C116.151 121.276 117.722 121.551 114.788 120.099C113.808 119.614 103.143 115.936 103.464 114.497C103.764 113.149 115.657 115.153 117.188 115.461C122.181 116.464 121.454 122.057 119.559 125.52C118.585 127.299 118.976 124.934 118.94 124.345C118.613 119.022 117.138 113.9 117.611 108.518C117.871 105.556 118.442 104.105 119.091 101.29C119.416 99.8819 120.181 98.0547 119.076 96.6673C117.763 95.0207 113.82 93.8709 112.372 93.3393C109.201 92.1751 103.022 90.0726 99.901 89.0476C94.7746 87.3637 89.6759 85.81 84.3499 84.8914C83.2198 84.6965 76.0579 82.8416 74.9891 84.2288C74.3083 85.1124 74.8681 86.4641 74.9891 87.5719C75.157 89.1103 75.5803 92.0729 75.9252 93.5953C76.3377 95.4167 77.1908 96.7415 77.9483 98.384C78.5628 99.7164 82.3025 106.487 82.055 101.14C81.8995 97.7787 79.7584 94.6711 79.7903 91.3666C79.8038 89.9679 80.4742 89.8334 81.6474 90.6288C83.776 92.0718 85.9366 95.1873 87.3092 97.0287C90.3415 101.097 93.0243 105.68 96.6096 109.317C98.1052 110.834 97.8746 109.631 97.2437 108.323C95.8307 105.393 93.5983 102.232 91.5668 99.7694C89.7324 97.5454 83.2036 91.9188 85.6333 93.4749C92.7811 98.0525 98.7582 104.588 104.355 110.868C105.583 112.246 106.721 113.703 107.963 115.069C109.713 116.993 109.646 116.404 108.114 113.955C105.686 110.072 102.912 106.423 99.8406 103.022C97.948 100.927 95.5103 99.3672 93.6202 97.2696C92.377 95.8901 96.92 98.9828 98.5422 99.8899C103.509 102.667 104.9 103.526 109.685 106.516C111.729 107.793 113.6 109.171 110.983 107.148C106.173 103.43 105.218 102.789 100.203 98.8056C100.057 98.6895 90.4755 91.9729 97.908 95.568C103.016 98.0385 104.028 98.7848 109.443 101.215C111.151 101.982 112.868 102.74 114.637 103.353C115.21 103.552 116.616 104.216 116.433 103.639C116.173 102.818 115.046 102.597 114.274 102.209C112.396 101.263 110.459 100.433 108.507 99.6489C104.706 98.1216 100.386 96.6039 96.368 95.5981C90.19 94.0516 97.4583 97.253 98.1043 96.3812C98.3337 96.0716 97.5555 95.8218 97.2135 95.6433C94.8138 94.3912 92.2046 93.5746 89.7852 92.3605C87.8521 91.3904 82.9489 87.6853 85.1048 87.873C87.7838 88.1063 90.0516 90.4347 92.05 92.0292" stroke="#4F3A5A" stroke-width="4" stroke-linecap="round"/>
<path d="M141.511 86.6081C139.874 87.1526 144.319 87.9333 144.622 87.9333C148.042 87.9333 150.454 87.0123 153.53 85.8552C155.874 84.9733 158.708 84.5708 161.184 84.3192C166.454 83.7839 171.706 83.1674 176.992 82.8133C182.586 82.4386 188.62 82.6254 194.068 81.187C194.771 81.0013 198.9 79.0723 199.126 79.7112C199.659 81.2162 199.375 83.2334 199.458 84.801C199.519 85.944 199.67 87.0588 199.67 88.2043C199.67 91.0872 199.362 93.8359 198.854 96.6673C198.655 97.775 198.661 98.9062 198.462 100.01C198.088 102.079 195.966 102.509 194.219 103.127C190.781 104.344 188.397 105.915 185.598 108.232C183.444 110.016 182.018 112.207 181.235 114.903C180.727 116.65 179.996 121.988 180.767 120.34C181.776 118.181 182.451 115.472 183.937 113.578C184.004 113.493 185.005 112.501 185.024 112.539C185.417 113.323 183.035 116.559 182.669 117.237C180.508 121.248 180.188 125.764 182.337 129.827C184.753 134.395 189.211 137.803 193.63 140.277C195.611 141.386 197.351 142.429 198.582 144.358C199.886 146.402 199.519 147.81 199.79 150.186C200.025 152.24 203.575 159.773 200.545 160.727C195.663 162.265 190.229 161.827 185.221 163.031C180.894 164.071 176.551 164.556 172.13 165.004C167.715 165.451 163.293 165.603 158.889 166.178C155.061 166.678 150.897 167.018 147.158 167.925C145.894 168.232 144.779 168.823 143.565 169.25C143.019 169.442 142.481 165.38 142.387 164.733C142.175 163.271 142.538 161.879 142.87 160.471C143.548 157.597 143.406 154.671 143.414 151.722C143.45 138.541 143.414 125.359 143.414 112.178C143.414 106.837 143.414 101.496 143.414 96.1553C143.414 94.9362 143.619 93.4779 143.369 92.2702C143.242 91.6616 142.325 91.704 143.474 91.9389C158.379 94.9851 173.596 88.7765 188.527 88.7765C190.215 88.7765 193.319 89.7574 193.404 91.6678C193.541 94.7521 193.124 98.6957 190.127 100.372C187.09 102.07 183.294 102.494 179.891 102.149C178.357 101.993 174.488 101.239 172.976 100.733C169.869 99.6941 171.237 98.592 173.55 97.616C177.462 95.9652 181.858 95.2422 186.096 95.3722C186.189 95.3751 188.493 95.2029 187.168 96.0499C184.485 97.7654 180.742 98.847 177.687 99.5284C171.722 100.859 165.456 100.54 159.388 100.643C158.453 100.659 154.595 101.327 153.545 100.447C152.769 99.797 152.252 98.7851 151.355 98.2786C150.065 97.549 149.386 100.917 149.302 101.426C148.889 103.94 149.087 106.607 149.695 109.076C150.527 112.454 155.655 110.785 158.089 110.551C163.967 109.988 169.897 108.835 175.814 108.835C176.047 108.835 177.794 108.91 176.811 108.293C172.571 105.631 166.308 106.264 161.607 106.696C159.597 106.881 157.029 106.952 155.054 107.585C151.906 108.594 151.295 113.662 150.903 116.364C150.496 119.163 150.627 122.04 150.419 124.857C150.353 125.759 149.921 126.746 150.299 127.568C150.354 127.688 150.545 127.439 150.616 127.327C151.268 126.285 151.651 125.095 152.261 124.029C155.144 118.989 159.324 116.242 165.11 115.355C165.661 115.271 180.471 114.677 177.566 117.81C174.441 121.179 167.972 121.344 163.827 121.695C162.472 121.809 158.468 121.893 156.912 122.418C154.591 123.199 153.947 125.429 153.243 127.477C152.428 129.848 151.673 132.211 151.28 134.69C150.599 138.99 149.724 143.484 149.513 147.837C149.354 151.136 150.196 154.252 150.872 157.444C150.967 157.891 151.01 161.757 151.506 162.022C152.017 162.295 153.781 162.203 153.892 162.203C156.642 162.203 159.068 162.142 161.864 161.992C169.763 161.569 177.754 160.803 185.538 159.342C188.074 158.865 192.209 158.422 193.932 156.059C194.866 154.778 194.082 152.901 193.585 151.616C192.198 148.033 189.654 145.808 186.896 143.259C183.769 140.368 181.443 136.911 178.562 133.802C176.012 131.05 175.996 131.384 173.399 128.803C171.433 126.848 170.025 124.474 168.084 122.523C165.907 120.334 162.069 118.331 159.901 121.74C157.745 125.131 158.029 130.561 157.757 134.434C157.423 139.186 157.057 143.974 157.244 148.74C157.397 152.655 157.178 157.243 161.773 158.212C166.855 159.284 172.586 159.218 177.732 158.709C180.915 158.394 183.205 157.377 185.719 155.547C187.567 154.201 187.572 152.981 186.353 150.939C185.49 149.493 182.342 145.403 181.491 144.283C178.981 140.976 176.545 137.567 173.655 134.57C171.09 131.909 168.126 129.581 165.216 127.312C164.918 127.08 163.321 125.723 162.619 125.58C160.941 125.239 161.17 128.755 161.048 130.459C160.607 136.664 161.402 142.542 163.192 148.469C163.586 149.771 163.781 151.144 164.34 152.384C165.102 154.076 167.895 154.219 169.352 154.447C171.44 154.775 177.382 156.081 178.713 153.393C179.345 152.119 178.609 150.49 178.155 149.388C176.845 146.213 174.868 143.319 173.187 140.337C172.709 139.488 169.652 132.192 167.692 133.17C166.602 133.713 166.792 136.897 166.816 137.265C167.065 141.051 168.166 144.842 169.398 148.409C169.888 149.828 170.921 151.367 171.24 152.851C171.42 153.691 171.479 154.763 171.678 155.456" stroke="#4F3A5A" stroke-width="4" stroke-linecap="round"/>
<path d="M147.468 34.7483C149.906 35.5059 152.503 36.156 154.635 37.6235C155.242 38.0411 155.549 38.1441 156.254 38.4703C159.214 39.8377 161.533 42.0752 163.639 44.516C164.409 45.4085 165.978 47.4533 166.739 48.4546C167.438 49.3754 168.481 50.4575 168.851 51.5956C169.158 52.5356 168.953 53.7169 168.526 54.5889C167.966 55.7304 166.216 55.1723 165.317 54.8351C164.786 54.6359 164.463 54.4376 164.054 54.0868C163.986 54.0292 163.843 53.8222 163.856 53.9095C163.969 54.6714 164.186 55.5333 164.458 56.253C164.719 56.9403 165.227 57.5735 165.811 58.0155C166.458 58.5058 167.537 58.6072 168.042 59.2463C168.953 60.4007 169.846 61.5916 171.201 62.279C172.017 62.6929 172.921 62.9686 173.778 63.2834C174.55 63.5673 175.737 64.2387 176.591 63.9332C177.32 63.6725 177.96 63.1094 178.645 62.7517C179.482 62.3144 180.046 62.0751 180.441 61.1762C181.437 58.9128 181.001 57.096 180.728 54.7071C180.382 51.6897 181.071 48.6809 179.869 45.7764C178.7 42.9519 177.03 40.4122 176.009 37.5053C175.133 35.0112 175.158 31.8569 173.551 29.6872C171.887 27.4414 169.356 25.7818 167.489 23.6908C165.046 20.9546 162.649 18.508 159.177 17.0838C153.371 14.7024 147.365 12.8477 141.397 10.9297C139.058 10.1782 136.457 8.99837 133.973 8.84229C131.329 8.67617 129.291 11.2584 127.388 12.6923C124.453 14.9031 121.643 15.38 117.99 15.2523C114.595 15.1337 114.508 14.8826 111.237 14.7206C110.268 14.6726 108.683 14.567 107.703 15.0751C105.988 15.9638 105.335 18.5597 104.642 20.1559C103.182 23.5185 100.883 26.2342 98.5609 29.0374C96.3637 31.6896 94.0556 34.3338 92.2822 37.2986C90.8981 39.6125 90.4262 42.0056 90.4262 44.6736C90.4262 45.6599 90.4826 46.6344 91.0185 47.4897C91.4955 48.2508 92.0849 48.8452 92.2229 49.7839C92.6633 52.7783 91.5131 55.9523 91.7096 58.9903C91.7768 60.0289 92.0101 61.0464 92.3019 62.0427C93.0249 64.5109 90.9757 57.0679 90.5052 54.5397C89.8943 51.2577 89.1103 47.262 90.7915 44.1419C92.1249 41.6671 94.1322 42.3378 95.8164 43.9843C96.936 45.0788 97.5867 46.1841 99.1928 46.5247C99.928 46.6806 100.222 46.6382 100.911 46.9579C101.529 47.2453 101.751 47.7642 102.273 48.1297C103.451 48.9552 104.862 45.8769 105.086 45.3727C106.376 42.4713 106.658 38.7326 103.231 37.1903C101.819 36.5552 100.288 36.5012 98.8077 36.8358C97.9213 37.0362 97.3244 37.5211 98.6991 37.6432C103.374 38.0584 107.254 35.1305 108.729 30.8491C109.79 27.7708 109.697 24.3383 110.862 21.2981C112.498 17.026 118.843 17.6264 122.491 17.0149C123.938 16.7723 130.172 16.0141 128.316 12.9877C127.217 11.1954 125.252 11.3949 123.479 11.5895C120.424 11.9246 117.48 11.2696 114.436 11.363C109.211 11.5233 125.288 11.2961 129.915 8.87183C130.83 8.39271 131.556 7.43781 132.62 7.2767C134.44 7.00134 136.377 7.33034 138.168 7.64102C142.384 8.37227 146.656 9.11201 150.667 10.6442C153.971 11.9062 156.844 13.9337 159.808 15.8234C163.311 18.0558 166.404 20.4267 168.802 23.868C169.684 25.1332 170.106 26.4773 170.372 27.9937C171.075 32.0045 171.258 36.0643 172.07 40.0654C172.749 43.4107 173.351 46.6695 173.511 50.0891C173.548 50.8744 173.59 53.1868 173.59 54.1065C173.59 54.3941 173.681 55.62 173.393 54.717C173.074 53.7176 172.59 53.0652 171.961 52.2061C170.439 50.1254 169.597 49.0153 168.121 46.6625C165.83 43.0105 164.213 39.4005 162.691 35.3982C160.968 30.8679 158.264 27.8582 154.181 25.1973C153.286 24.6136 150.677 23.2616 151.121 24.2323C151.548 25.1654 152.337 25.8923 153.036 26.6447C155.501 29.2981 158.966 32.2901 161.546 34.7385C165.534 38.5227 169.702 42.4 171.635 47.6767C172.152 49.0875 172.26 49.8888 172.692 51.3101C173.284 53.2573 174.109 55.1193 174.716 57.0604C174.961 57.8453 175.815 59.9847 174.419 58.5768C171.102 55.2305 166.529 53.8514 162.464 51.6547C160.037 50.3433 157.905 48.7109 155.366 47.598C153.022 46.5706 150.715 45.5509 148.416 44.4274C146.431 43.4577 144.408 42.8584 142.285 42.2809C139.58 41.5451 137.234 40.2574 134.851 38.8051C129.669 35.6466 124.116 32.2564 117.792 33.9705C115.715 34.5333 113.87 36.4003 111.908 37.3281C108.705 38.8431 103.664 38.2848 103.112 34.0492C102.813 31.7526 104.425 30.0014 106.469 29.2343C107.967 28.6719 109.261 28.5184 110.862 28.7223C113.151 29.014 114.648 30.4252 116.746 31.1445C121.117 32.6437 126.119 31.7695 130.646 32.2867C133.583 32.6224 135.135 33.0495 137.951 33.7834C139.526 34.1936 143.299 35.2911 137.764 33.2418C133.844 31.7907 130.485 30.6954 126.47 29.3919C125.549 29.0929 119.152 27.1466 117.516 26.3788C115.417 25.3942 117.268 25.3218 118.483 25.217C123.047 24.8232 127.69 25.2717 132.245 25.532C133.42 25.5992 134.593 25.711 135.769 25.729C136.314 25.7373 137.055 26.0324 137.398 25.6108C137.649 25.3035 136.806 25.069 136.451 24.892C135.455 24.3953 134.386 24.0586 133.371 23.6021C132.21 23.0802 130.964 22.6924 129.925 21.9578C129.423 21.6023 128.518 20.9224 128.889 20.4316C129.837 19.1758 136.509 19.2149 136.747 19.2106C138.044 19.1875 139.339 19.3133 140.637 19.3288C140.992 19.333 141.935 19.5386 141.703 19.2697C141.345 18.8562 140.665 18.9212 140.143 18.7577C139.303 18.4945 138.454 18.2595 137.616 17.9897C137.287 17.8837 134.698 17.1789 136.984 17.3989C141.029 17.7882 145.345 18.3697 149.176 19.7719C152.706 21.0637 155.159 23.7569 158.18 25.8373C159.736 26.9095 161.287 27.5541 162.612 28.9586C163.375 29.7671 164.911 31.6102 165.574 32.5033C165.868 32.8993 166.595 33.9552 166.107 33.8818C164.421 33.6288 162.892 32.7407 161.25 32.2867C156.374 30.9391 151.572 30.1414 146.51 30.7999C143.514 31.1897 144.107 31.3542 141.999 32.0209C141.508 32.176 141.875 31.7293 141.614 31.3907C140.601 30.0785 138.53 28.8606 137.3 28.0823C134.949 26.595 132.493 25.3209 130.231 23.7006C126.373 20.9365 121.964 18.9847 117.832 16.6702C116.333 15.831 114.54 14.2296 112.816 13.6867C112.208 13.4951 114.002 14.1619 114.574 14.4449C118.941 16.6074 122.522 19.9826 125.907 23.4249C126.394 23.9204 128.97 26.0408 129.027 27.1075C129.1 28.4793 126.539 29.8435 125.581 30.3667C124.35 31.039 124.029 31.2409 123.498 32.6018C123.217 33.323 123.34 34.1208 122.728 34.7089C122.347 35.0752 121.583 34.9256 121.099 34.9256C119.135 34.9256 125.04 35.6503 126.736 36.6389C128.532 37.6857 130.156 38.5217 131.791 39.8193C134.3 41.8114 137.587 43.1527 140.538 44.3388C144.731 46.0245 148.973 47.1595 153.352 48.238C155.205 48.6942 157.752 48.9122 159.374 49.9907" stroke="#EFD862" stroke-width="4" stroke-linecap="round"/>
<path d="M185.923 65.7846C186.51 61.2959 187.859 56.7781 186.994 52.2288C186.281 48.475 185.042 44.4974 183.848 40.8766C180.585 30.987 176.905 20.7259 168.716 13.6981C161.585 7.57767 150.959 3.84067 141.935 1.61137C136.487 0.265329 132.147 1.12636 127.608 4.34925C123.757 7.08341 118.862 5.37257 114.284 6.2858C107.84 7.5713 105.02 10.1964 100.827 14.9669C93.5373 23.2594 87.9714 32.0405 86.7665 43.2806C86.3193 47.4523 87.1958 51.2633 87.5699 55.3673C87.7706 57.5691 87.0532 61.0838 88.1725 63.1135C89.416 65.3685 96.0485 66.3856 98.4162 66.3856C100.849 66.3856 97.4093 60.4731 97.1441 59.6411C96.8117 58.598 96.193 46.0137 98.2154 48.4892C99.0477 49.508 103.695 56.3243 105.178 55.9015C106.738 55.4571 108.107 50.3035 108.928 48.9567C110.239 46.8059 111.765 44.5752 113.347 42.6128C115.123 40.4088 119.23 41.0247 121.716 41.2773C125.72 41.684 127.927 43.3172 130.754 45.9517C138.337 53.0171 147.256 51.5331 156.464 54.3657C162.271 56.1518 162.841 63.082 167.11 66.8531C170.376 69.7386 175.695 69.3559 179.764 69.3906C181.653 69.4067 184.572 70.3009 183.513 68.1886" stroke="black" stroke-width="2" stroke-linecap="round"/>
<path d="M136.79 82.1407L169.671 78.0079L202.553 73.8751" stroke="black" stroke-width="2" stroke-linecap="round"/>
<path d="M71.0056 71.5317L103.655 77.2079L136.304 82.8841" stroke="black" stroke-width="2" stroke-linecap="round"/>
<path d="M203.398 72.9966C203.398 80.8541 203.398 88.7116 203.398 96.5691C203.398 97.8604 202.644 102.002 203.498 103.28C204.076 104.145 207.184 105.115 208.219 105.918C209.573 106.969 210.803 108.387 211.834 109.758C218.844 119.08 213.132 130.979 205.206 137.303" stroke="black" stroke-width="2" stroke-linecap="round"/>
<path d="M204.603 137.303C204.603 144.805 204.603 152.306 204.603 159.807C204.603 162.06 205.138 164.249 203.398 165.55" stroke="black" stroke-width="2" stroke-linecap="round"/>
<path d="M139.14 174.292L201.759 165.264" stroke="black" stroke-width="2" stroke-linecap="round"/>
<path d="M137.468 174.467L136.79 83.2483" stroke="black" stroke-width="2" stroke-linecap="round"/>
<path d="M66.3068 162.921L137.965 174.637" stroke="black" stroke-width="2" stroke-linecap="round"/>
<path d="M67.2163 160.742C67.2163 154.131 67.2163 147.52 67.2163 140.909C67.2163 138.309 67.2052 136.857 65.4086 134.866C59.2583 125.428 59.6499 125.428 60.4331 119.57C60.8213 116.666 61.9134 113.407 63.9572 111.368C67.3374 107.997 65.3776 104.262 65.4086 98.6392C65.4423 92.5184 65.4086 86.3964 65.4086 80.2754C65.4086 77.469 64.5276 72.9815 67.2163 71.1937" stroke="black" stroke-width="2" stroke-linecap="round"/>
<path d="M65.6306 112.634C67.8337 111.681 70.8749 111.554 73.2608 111.616C75.9433 111.685 78.8974 112.257 81.3297 113.404C83.1222 114.25 84.804 115.942 86.1367 117.371C87.1268 118.432 88.1817 119.654 88.6738 121.043C89.1472 122.38 88.8356 123.911 88.6356 125.267C88.1051 128.862 87.096 132.486 85.0876 135.55C82.7685 139.087 79.4943 140.749 75.2256 140.23C72.9165 139.95 69.6528 139.615 67.6908 138.147" stroke="black" stroke-width="2.16437" stroke-linecap="round"/>
<path d="M203.145 104.072C200.502 106.803 196.891 108.078 193.884 110.265C190.156 112.976 187.011 117.496 187.074 122.232C187.197 131.386 194.961 137.937 203.661 138.661" stroke="black" stroke-width="2.16437" stroke-linecap="round"/>
<path d="M122.442 61.3416C121.535 61.765 120.638 63.5803 121.728 64.3851C122.445 64.9148 123.115 63.2042 123.314 62.8634" stroke="black" stroke-width="2.16437" stroke-linecap="round"/>
<path d="M148.598 62.646C148.208 62.7382 146.106 64.3941 146.733 64.6026C147.121 64.7315 147.361 64.5768 147.726 64.82" stroke="black" stroke-width="2.16437" stroke-linecap="round"/>
<path d="M152.986 21.2073C149.786 20.9356 146.593 20.5868 143.393 20.3119C142.769 20.2583 128.504 18.5846 137.724 21.591C142.233 23.0613 147.118 23.8317 151.498 25.6588C151.755 25.7659 152.315 26.1549 152.063 26.2728C151.395 26.5848 150.594 26.4324 149.857 26.4263C147.463 26.4063 144.604 26.0925 142.213 25.9146C140.362 25.777 138.49 25.6504 141.469 26.81C143.539 27.6157 148.598 29.7409 150.472 27.4496C150.938 26.88 150.561 24.5171 150.626 25.2494C150.758 26.7405 151.459 27.4717 152.063 28.5753" stroke="#EFD862" stroke-width="2.16437" stroke-linecap="round"/>
<path d="M174.939 126.996C175.143 125.547 175.042 126.442 175.15 124.375C175.203 123.357 175.072 119.514 175.845 123.487C176.412 126.406 176.814 129.369 177.928 132.146" stroke="#4F3A5A" stroke-width="4" stroke-linecap="round"/>
</svg>
