<svg width="280" height="265" viewBox="0 0 280 265" fill="none" xmlns="http://www.w3.org/2000/svg">
<path d="M20.7596 225.912L20.8076 222.12L20.8556 215.064C20.8876 214.04 20.9036 212.984 20.9036 211.896C20.9036 210.808 20.9036 209.688 20.9036 208.536C20.9036 207.384 20.9036 206.36 20.9036 205.464C20.9036 204.568 20.9356 203.56 20.9996 202.44V202.248C21.0316 201.928 21.0476 201.608 21.0476 201.288C21.0796 200.936 21.0956 200.584 21.0956 200.232C21.1276 199.656 21.3036 199.032 21.6236 198.36C21.8476 197.912 22.1836 197.528 22.6316 197.208C23.1436 196.952 23.6396 196.824 24.1196 196.824C24.3756 196.824 24.5996 196.84 24.7916 196.872C25.0156 196.872 25.2236 196.888 25.4156 196.92C25.8316 196.984 26.1996 197.176 26.5196 197.496C26.7116 197.656 26.8876 197.912 27.0476 198.264C27.1116 198.456 27.1596 198.648 27.1916 198.84C27.2556 199 27.3036 199.176 27.3356 199.368C27.3676 199.592 27.3836 199.8 27.3836 199.992C27.4156 200.184 27.4316 200.376 27.4316 200.568C27.4316 200.792 27.4156 201 27.3836 201.192C27.3836 201.352 27.3836 201.528 27.3836 201.72V202.536L27.0956 227.448V227.928C27.0956 228.024 27.0796 228.152 27.0476 228.312C27.0476 228.44 27.0316 228.6 26.9996 228.792C26.9356 228.952 26.8716 229.128 26.8076 229.32C26.7756 229.48 26.7276 229.656 26.6636 229.848C26.5676 230.008 26.4556 230.168 26.3276 230.328C26.2316 230.456 26.1036 230.584 25.9436 230.712C25.6876 230.968 25.2716 231.144 24.6956 231.24C23.8316 231.432 23.0156 231.352 22.2476 231C21.8636 230.744 21.5916 230.424 21.4316 230.04C21.3356 229.944 21.2876 229.848 21.2876 229.752C21.2556 229.688 21.2236 229.64 21.1916 229.608C21.1596 229.576 21.1276 229.528 21.0956 229.464C21.0316 229.304 20.9836 229.144 20.9516 228.984C20.9196 228.792 20.9036 228.6 20.9036 228.408C20.8716 228.248 20.8396 228.088 20.8076 227.928C20.8076 227.768 20.7916 227.608 20.7596 227.448C20.7276 227.192 20.7276 226.92 20.7596 226.632V225.912ZM32.7727 213.864C32.7727 213.128 32.7567 212.344 32.7247 211.512C32.7247 210.68 32.8687 209.928 33.1567 209.256C33.4127 208.648 33.8287 208.216 34.4047 207.96C35.0127 207.672 35.6047 207.608 36.1807 207.768C36.7567 207.864 37.2047 208.04 37.5247 208.296C37.8447 208.552 38.0687 208.856 38.1967 209.208C38.3567 209.528 38.4527 209.912 38.4847 210.36C38.5167 210.776 38.5487 211.192 38.5807 211.608C38.9007 211.032 39.3007 210.568 39.7807 210.216C40.2607 209.864 40.7567 209.576 41.2687 209.352C41.7807 209.128 42.2607 208.968 42.7087 208.872C43.1887 208.776 43.5567 208.728 43.8127 208.728C45.0287 208.728 46.2287 209 47.4127 209.544C48.6287 210.056 49.6367 210.792 50.4367 211.752C50.8847 212.328 51.2207 212.936 51.4447 213.576C51.7007 214.184 51.8767 214.824 51.9727 215.496C52.1007 216.168 52.1807 216.856 52.2127 217.56C52.2447 218.232 52.2767 218.92 52.3087 219.624C52.4687 221.672 52.4687 223.704 52.3087 225.72C52.2767 226.136 52.2607 226.616 52.2607 227.16C52.2607 227.704 52.2127 228.248 52.1167 228.792C52.0527 229.304 51.9087 229.768 51.6847 230.184C51.4927 230.568 51.1567 230.808 50.6767 230.904C50.0047 231.064 49.4447 231.096 48.9967 231C48.5807 230.936 48.2447 230.792 47.9887 230.568C47.7327 230.344 47.5407 230.056 47.4127 229.704C47.2847 229.352 47.1727 228.952 47.0767 228.504C47.0127 228.152 46.9487 227.752 46.8847 227.304C46.8527 226.824 46.8207 226.344 46.7887 225.864C46.7887 225.384 46.7727 224.92 46.7407 224.472C46.7407 223.992 46.7407 223.56 46.7407 223.176C46.7407 222.568 46.7247 221.896 46.6927 221.16C46.6607 220.424 46.6607 219.736 46.6927 219.096C46.6927 217.592 46.2927 216.456 45.4927 215.688C44.7247 214.888 43.6687 214.552 42.3247 214.68C41.3007 214.808 40.4047 215.224 39.6367 215.928C38.8687 216.6 38.5007 217.48 38.5327 218.568C38.5327 218.984 38.5327 219.368 38.5327 219.72C38.5327 220.072 38.5167 220.424 38.4847 220.776C38.4847 221.128 38.4847 221.512 38.4847 221.928C38.4847 222.344 38.4847 222.808 38.4847 223.32C38.4847 224.376 38.4847 225.496 38.4847 226.68C38.4847 227.832 38.3407 228.776 38.0527 229.512C37.7967 230.28 37.3647 230.808 36.7567 231.096C36.1487 231.384 35.4287 231.304 34.5967 230.856C34.2447 230.664 33.9567 230.408 33.7327 230.088C33.5407 229.736 33.3807 229.368 33.2527 228.984C33.1567 228.6 33.0927 228.216 33.0607 227.832C33.0287 227.416 32.9967 227.032 32.9647 226.68C32.8687 225.624 32.8047 224.648 32.7727 223.752C32.7727 222.824 32.7727 221.832 32.7727 220.776V213.864ZM74.8769 209.832C75.1329 210.44 75.1489 211.112 74.9249 211.848C74.7329 212.584 74.3649 213.064 73.8209 213.288C73.5329 213.416 73.1489 213.528 72.6689 213.624C72.1889 213.688 71.6609 213.752 71.0849 213.816C70.5409 213.88 69.9969 213.928 69.4529 213.96C68.9089 213.992 68.4449 214.008 68.0609 214.008C68.0929 214.968 68.1249 215.96 68.1569 216.984C68.1889 217.976 68.2209 218.952 68.2529 219.912C68.2849 220.872 68.3009 221.8 68.3009 222.696C68.3009 223.56 68.2849 224.344 68.2529 225.048C68.2529 225.528 68.2529 226.088 68.2529 226.728C68.2529 227.336 68.2049 227.928 68.1089 228.504C68.0449 229.08 67.9329 229.592 67.7729 230.04C67.6129 230.456 67.3729 230.728 67.0529 230.856C66.0609 231.272 65.1489 231.384 64.3169 231.192C63.5169 231.032 62.9409 230.696 62.5889 230.184C62.3329 229.768 62.1409 229.288 62.0129 228.744C61.8849 228.168 61.7889 227.592 61.7249 227.016C61.6929 226.408 61.6769 225.832 61.6769 225.288C61.7089 224.712 61.7249 224.216 61.7249 223.8C61.7569 222.456 61.7729 220.936 61.7729 219.24C61.8049 217.512 61.8209 215.784 61.8209 214.056H61.1009C60.7169 214.056 60.2209 214.056 59.6129 214.056C59.0369 214.024 58.4449 213.976 57.8369 213.912C57.2609 213.816 56.7169 213.704 56.2049 213.576C55.6929 213.416 55.3249 213.192 55.1009 212.904C54.7489 212.488 54.5249 212.04 54.4289 211.56C54.3649 211.08 54.3969 210.632 54.5249 210.216C54.6849 209.768 54.9249 209.384 55.2449 209.064C55.5649 208.712 55.9329 208.488 56.3489 208.392C56.9249 208.232 57.7409 208.152 58.7969 208.152C59.8529 208.12 60.8449 208.12 61.7729 208.152C61.7409 207.832 61.7249 207.528 61.7249 207.24C61.7249 206.92 61.7089 206.616 61.6769 206.328C61.6449 205.944 61.6289 205.464 61.6289 204.888C61.6289 204.28 61.6609 203.688 61.7249 203.112C61.8209 202.504 61.9649 201.944 62.1569 201.432C62.3489 200.888 62.6209 200.472 62.9729 200.184C63.4529 199.8 63.9329 199.592 64.4129 199.56C64.9249 199.496 65.3889 199.56 65.8049 199.752C66.2529 199.944 66.6209 200.232 66.9089 200.616C67.2289 200.968 67.4529 201.368 67.5809 201.816C67.6769 202.2 67.7569 202.664 67.8209 203.208C67.8849 203.72 67.9169 204.264 67.9169 204.84C67.9489 205.416 67.9649 205.992 67.9649 206.568C67.9649 207.144 67.9649 207.672 67.9649 208.152H68.4449C68.9249 208.152 69.4849 208.136 70.1249 208.104C70.7649 208.072 71.3889 208.088 71.9969 208.152C72.6369 208.216 73.2129 208.376 73.7249 208.632C74.2369 208.856 74.6209 209.256 74.8769 209.832ZM93.6296 224.424C94.0136 224.328 94.3976 224.264 94.7816 224.232C95.1976 224.2 95.5656 224.248 95.8856 224.376C96.2376 224.504 96.5256 224.728 96.7496 225.048C96.9736 225.336 97.0856 225.752 97.0856 226.296C97.0856 226.68 96.9896 227.048 96.7976 227.4C96.6056 227.752 96.3656 228.072 96.0776 228.36C95.7896 228.648 95.4696 228.904 95.1176 229.128C94.7656 229.32 94.4296 229.48 94.1096 229.608C93.1816 230.024 92.1096 230.344 90.8936 230.568C89.7096 230.792 88.4776 230.872 87.1976 230.808C85.4696 230.744 83.8056 230.408 82.2056 229.8C80.6376 229.16 79.4056 228.12 78.5096 226.68C77.6776 225.272 77.1816 223.704 77.0216 221.976C76.8616 220.248 76.9416 218.616 77.2616 217.08C77.6136 215.224 78.2056 213.72 79.0376 212.568C79.9016 211.384 80.9256 210.44 82.1096 209.736C83.5496 208.904 85.1656 208.472 86.9576 208.44C88.7496 208.408 90.4616 208.76 92.0936 209.496C93.1816 209.976 94.1576 210.632 95.0216 211.464C95.8856 212.264 96.5416 213.24 96.9896 214.392C97.1176 214.68 97.2136 215.032 97.2776 215.448C97.3736 215.864 97.4376 216.312 97.4696 216.792C97.5016 217.24 97.5016 217.688 97.4696 218.136C97.4376 218.584 97.3576 218.984 97.2296 219.336C97.0376 219.912 96.7976 220.36 96.5096 220.68C96.2216 221 95.8536 221.24 95.4056 221.4C94.9576 221.56 94.4136 221.672 93.7736 221.736C93.1656 221.768 92.4296 221.8 91.5656 221.832C90.7976 221.864 90.0776 221.88 89.4056 221.88C88.7336 221.88 88.0456 221.88 87.3416 221.88C86.6376 221.848 85.9016 221.832 85.1336 221.832C84.3976 221.8 83.5656 221.768 82.6376 221.736C82.5416 222.376 82.6216 222.936 82.8776 223.416C83.1656 223.864 83.5496 224.248 84.0296 224.568C84.5096 224.856 85.0536 225.08 85.6616 225.24C86.2696 225.4 86.8616 225.496 87.4376 225.528C88.5256 225.592 89.5656 225.512 90.5576 225.288C91.5496 225.032 92.5736 224.744 93.6296 224.424ZM91.5656 215.112C90.9576 214.408 90.3176 213.896 89.6456 213.576C89.1336 213.352 88.5896 213.256 88.0136 213.288C87.4696 213.288 86.9416 213.368 86.4296 213.528C85.5016 213.752 84.7176 214.232 84.0776 214.968C84.0136 215.032 83.9016 215.192 83.7416 215.448C83.5816 215.672 83.4216 215.912 83.2616 216.168C83.1336 216.424 83.0376 216.664 82.9736 216.888C82.9096 217.112 82.9416 217.224 83.0696 217.224H92.4776C92.4456 216.776 92.3656 216.408 92.2376 216.12C92.1096 215.8 91.8856 215.464 91.5656 215.112ZM108.765 227.16C108.733 227.32 108.701 227.48 108.669 227.64C108.669 227.768 108.669 227.912 108.669 228.072L108.381 229.08C108.317 229.208 108.269 229.288 108.237 229.32L108.093 229.608C107.933 229.96 107.645 230.248 107.229 230.472C106.461 230.856 105.645 230.952 104.781 230.76C104.237 230.696 103.805 230.536 103.485 230.28C103.165 230.056 102.941 229.784 102.813 229.464C102.685 229.144 102.589 228.824 102.525 228.504C102.429 228.184 102.381 227.896 102.381 227.64V200.76C102.381 200.536 102.381 200.344 102.381 200.184C102.413 199.992 102.445 199.816 102.477 199.656C102.509 199.432 102.541 199.24 102.573 199.08C102.637 198.92 102.701 198.744 102.765 198.552C102.861 198.232 103.037 197.976 103.293 197.784C103.677 197.496 104.045 197.336 104.397 197.304C104.621 197.24 104.829 197.208 105.021 197.208C105.213 197.176 105.437 197.16 105.693 197.16C106.141 197.16 106.653 197.288 107.229 197.544C107.677 197.8 107.997 198.152 108.189 198.6C108.509 199.24 108.669 199.832 108.669 200.376C108.701 200.696 108.717 201.176 108.717 201.816C108.749 202.456 108.765 202.936 108.765 203.256V203.448C108.829 204.472 108.861 205.464 108.861 206.424C108.861 207.352 108.845 208.376 108.813 209.496C108.813 210.584 108.797 211.64 108.765 212.664C108.765 213.656 108.765 214.648 108.765 215.64V225.72C108.765 225.848 108.765 225.976 108.765 226.104C108.797 226.2 108.813 226.312 108.813 226.44C108.813 226.76 108.797 227 108.765 227.16ZM121.14 227.16C121.108 227.32 121.076 227.48 121.044 227.64C121.044 227.768 121.044 227.912 121.044 228.072L120.756 229.08C120.692 229.208 120.644 229.288 120.612 229.32L120.468 229.608C120.308 229.96 120.02 230.248 119.604 230.472C118.836 230.856 118.02 230.952 117.156 230.76C116.612 230.696 116.18 230.536 115.86 230.28C115.54 230.056 115.316 229.784 115.188 229.464C115.06 229.144 114.964 228.824 114.9 228.504C114.804 228.184 114.756 227.896 114.756 227.64V200.76C114.756 200.536 114.756 200.344 114.756 200.184C114.788 199.992 114.82 199.816 114.852 199.656C114.884 199.432 114.916 199.24 114.948 199.08C115.012 198.92 115.076 198.744 115.14 198.552C115.236 198.232 115.412 197.976 115.668 197.784C116.052 197.496 116.42 197.336 116.772 197.304C116.996 197.24 117.204 197.208 117.396 197.208C117.588 197.176 117.812 197.16 118.068 197.16C118.516 197.16 119.028 197.288 119.604 197.544C120.052 197.8 120.372 198.152 120.564 198.6C120.884 199.24 121.044 199.832 121.044 200.376C121.076 200.696 121.092 201.176 121.092 201.816C121.124 202.456 121.14 202.936 121.14 203.256V203.448C121.204 204.472 121.236 205.464 121.236 206.424C121.236 207.352 121.22 208.376 121.188 209.496C121.188 210.584 121.172 211.64 121.14 212.664C121.14 213.656 121.14 214.648 121.14 215.64V225.72C121.14 225.848 121.14 225.976 121.14 226.104C121.172 226.2 121.188 226.312 121.188 226.44C121.188 226.76 121.172 227 121.14 227.16ZM141.676 224.424C142.06 224.328 142.444 224.264 142.828 224.232C143.244 224.2 143.612 224.248 143.932 224.376C144.284 224.504 144.572 224.728 144.796 225.048C145.02 225.336 145.132 225.752 145.132 226.296C145.132 226.68 145.036 227.048 144.844 227.4C144.652 227.752 144.412 228.072 144.124 228.36C143.836 228.648 143.516 228.904 143.164 229.128C142.812 229.32 142.476 229.48 142.156 229.608C141.228 230.024 140.156 230.344 138.94 230.568C137.756 230.792 136.524 230.872 135.244 230.808C133.516 230.744 131.852 230.408 130.252 229.8C128.684 229.16 127.452 228.12 126.556 226.68C125.724 225.272 125.228 223.704 125.068 221.976C124.908 220.248 124.988 218.616 125.308 217.08C125.66 215.224 126.252 213.72 127.084 212.568C127.948 211.384 128.972 210.44 130.156 209.736C131.596 208.904 133.212 208.472 135.004 208.44C136.796 208.408 138.508 208.76 140.14 209.496C141.228 209.976 142.204 210.632 143.068 211.464C143.932 212.264 144.588 213.24 145.036 214.392C145.164 214.68 145.26 215.032 145.324 215.448C145.42 215.864 145.484 216.312 145.516 216.792C145.548 217.24 145.548 217.688 145.516 218.136C145.484 218.584 145.404 218.984 145.276 219.336C145.084 219.912 144.844 220.36 144.556 220.68C144.268 221 143.9 221.24 143.452 221.4C143.004 221.56 142.46 221.672 141.82 221.736C141.212 221.768 140.476 221.8 139.612 221.832C138.844 221.864 138.124 221.88 137.452 221.88C136.78 221.88 136.092 221.88 135.388 221.88C134.684 221.848 133.948 221.832 133.18 221.832C132.444 221.8 131.612 221.768 130.684 221.736C130.588 222.376 130.668 222.936 130.924 223.416C131.212 223.864 131.596 224.248 132.076 224.568C132.556 224.856 133.1 225.08 133.708 225.24C134.316 225.4 134.908 225.496 135.484 225.528C136.572 225.592 137.612 225.512 138.604 225.288C139.596 225.032 140.62 224.744 141.676 224.424ZM139.612 215.112C139.004 214.408 138.364 213.896 137.692 213.576C137.18 213.352 136.636 213.256 136.06 213.288C135.516 213.288 134.988 213.368 134.476 213.528C133.548 213.752 132.764 214.232 132.124 214.968C132.06 215.032 131.948 215.192 131.788 215.448C131.628 215.672 131.468 215.912 131.308 216.168C131.18 216.424 131.084 216.664 131.02 216.888C130.956 217.112 130.988 217.224 131.116 217.224H140.524C140.492 216.776 140.412 216.408 140.284 216.12C140.156 215.8 139.932 215.464 139.612 215.112ZM167.253 212.52C167.509 212.968 167.637 213.448 167.637 213.96C167.669 214.472 167.557 214.952 167.301 215.4C167.013 215.976 166.597 216.376 166.053 216.6C165.541 216.792 164.965 216.808 164.325 216.648C164.037 216.584 163.781 216.472 163.557 216.312C163.333 216.152 163.093 215.992 162.837 215.832C162.613 215.64 162.341 215.464 162.021 215.304C161.733 215.144 161.349 215.032 160.869 214.968C160.389 214.904 159.861 214.904 159.285 214.968C158.741 215.032 158.245 215.16 157.797 215.352C157.093 215.704 156.533 216.248 156.117 216.984C155.701 217.688 155.429 218.456 155.301 219.288C155.173 220.088 155.189 220.904 155.349 221.736C155.541 222.568 155.893 223.272 156.405 223.848C156.789 224.296 157.285 224.664 157.893 224.952C158.533 225.24 159.141 225.416 159.717 225.48C160.261 225.544 160.805 225.544 161.349 225.48C161.893 225.384 162.421 225.256 162.933 225.096C163.317 224.936 163.749 224.728 164.229 224.472C164.709 224.184 165.173 224.008 165.621 223.944C166.197 223.944 166.645 224.104 166.965 224.424C167.285 224.712 167.509 225.08 167.637 225.528C167.765 225.944 167.781 226.392 167.685 226.872C167.621 227.352 167.445 227.768 167.157 228.12C166.773 228.6 166.229 229.064 165.525 229.512C164.821 229.928 164.149 230.232 163.509 230.424C162.741 230.68 161.877 230.824 160.917 230.856C159.989 230.888 159.109 230.856 158.277 230.76C157.893 230.696 157.493 230.616 157.077 230.52C156.661 230.424 156.261 230.312 155.877 230.184C154.469 229.672 153.285 228.952 152.325 228.024C151.397 227.064 150.677 225.992 150.165 224.808C149.685 223.624 149.413 222.36 149.349 221.016C149.285 219.672 149.445 218.344 149.829 217.032C150.181 215.784 150.613 214.728 151.125 213.864C151.669 213 152.293 212.296 152.997 211.752C153.733 211.176 154.549 210.728 155.445 210.408C156.341 210.056 157.333 209.752 158.421 209.496C159.541 209.272 160.725 209.272 161.973 209.496C163.221 209.72 164.341 210.136 165.333 210.744C166.101 211.16 166.741 211.752 167.253 212.52ZM190.611 209.832C190.867 210.44 190.883 211.112 190.659 211.848C190.467 212.584 190.099 213.064 189.555 213.288C189.267 213.416 188.883 213.528 188.403 213.624C187.923 213.688 187.395 213.752 186.819 213.816C186.275 213.88 185.731 213.928 185.187 213.96C184.643 213.992 184.179 214.008 183.795 214.008C183.827 214.968 183.859 215.96 183.891 216.984C183.923 217.976 183.955 218.952 183.987 219.912C184.019 220.872 184.035 221.8 184.035 222.696C184.035 223.56 184.019 224.344 183.987 225.048C183.987 225.528 183.987 226.088 183.987 226.728C183.987 227.336 183.939 227.928 183.843 228.504C183.779 229.08 183.667 229.592 183.507 230.04C183.347 230.456 183.107 230.728 182.787 230.856C181.795 231.272 180.883 231.384 180.051 231.192C179.251 231.032 178.675 230.696 178.323 230.184C178.067 229.768 177.875 229.288 177.747 228.744C177.619 228.168 177.523 227.592 177.459 227.016C177.427 226.408 177.411 225.832 177.411 225.288C177.443 224.712 177.459 224.216 177.459 223.8C177.491 222.456 177.507 220.936 177.507 219.24C177.539 217.512 177.555 215.784 177.555 214.056H176.835C176.451 214.056 175.955 214.056 175.347 214.056C174.771 214.024 174.179 213.976 173.571 213.912C172.995 213.816 172.451 213.704 171.939 213.576C171.427 213.416 171.059 213.192 170.835 212.904C170.483 212.488 170.259 212.04 170.163 211.56C170.099 211.08 170.131 210.632 170.259 210.216C170.419 209.768 170.659 209.384 170.979 209.064C171.299 208.712 171.667 208.488 172.083 208.392C172.659 208.232 173.475 208.152 174.531 208.152C175.587 208.12 176.579 208.12 177.507 208.152C177.475 207.832 177.459 207.528 177.459 207.24C177.459 206.92 177.443 206.616 177.411 206.328C177.379 205.944 177.363 205.464 177.363 204.888C177.363 204.28 177.395 203.688 177.459 203.112C177.555 202.504 177.699 201.944 177.891 201.432C178.083 200.888 178.355 200.472 178.707 200.184C179.187 199.8 179.667 199.592 180.147 199.56C180.659 199.496 181.123 199.56 181.539 199.752C181.987 199.944 182.355 200.232 182.643 200.616C182.963 200.968 183.187 201.368 183.315 201.816C183.411 202.2 183.491 202.664 183.555 203.208C183.619 203.72 183.651 204.264 183.651 204.84C183.683 205.416 183.699 205.992 183.699 206.568C183.699 207.144 183.699 207.672 183.699 208.152H184.179C184.659 208.152 185.219 208.136 185.859 208.104C186.499 208.072 187.123 208.088 187.731 208.152C188.371 208.216 188.947 208.376 189.459 208.632C189.971 208.856 190.355 209.256 190.611 209.832Z" fill="#F47D54"/>
<path d="M196.166 225.912L196.214 222.12L196.262 215.064C196.294 214.04 196.31 212.984 196.31 211.896C196.31 210.808 196.31 209.688 196.31 208.536C196.31 207.384 196.31 206.36 196.31 205.464C196.31 204.568 196.342 203.56 196.406 202.44V202.248C196.438 201.928 196.454 201.608 196.454 201.288C196.486 200.936 196.502 200.584 196.502 200.232C196.534 199.656 196.71 199.032 197.03 198.36C197.254 197.912 197.59 197.528 198.038 197.208C198.55 196.952 199.046 196.824 199.526 196.824C199.782 196.824 200.006 196.84 200.198 196.872C200.422 196.872 200.63 196.888 200.822 196.92C201.238 196.984 201.606 197.176 201.926 197.496C202.118 197.656 202.294 197.912 202.454 198.264C202.518 198.456 202.566 198.648 202.598 198.84C202.662 199 202.71 199.176 202.742 199.368C202.774 199.592 202.79 199.8 202.79 199.992C202.822 200.184 202.838 200.376 202.838 200.568C202.838 200.792 202.822 201 202.79 201.192C202.79 201.352 202.79 201.528 202.79 201.72V202.536L202.502 227.448V227.928C202.502 228.024 202.486 228.152 202.454 228.312C202.454 228.44 202.438 228.6 202.406 228.792C202.342 228.952 202.278 229.128 202.214 229.32C202.182 229.48 202.134 229.656 202.07 229.848C201.974 230.008 201.862 230.168 201.734 230.328C201.638 230.456 201.51 230.584 201.35 230.712C201.094 230.968 200.678 231.144 200.102 231.24C199.238 231.432 198.422 231.352 197.654 231C197.27 230.744 196.998 230.424 196.838 230.04C196.742 229.944 196.694 229.848 196.694 229.752C196.662 229.688 196.63 229.64 196.598 229.608C196.566 229.576 196.534 229.528 196.502 229.464C196.438 229.304 196.39 229.144 196.358 228.984C196.326 228.792 196.31 228.6 196.31 228.408C196.278 228.248 196.246 228.088 196.214 227.928C196.214 227.768 196.198 227.608 196.166 227.448C196.134 227.192 196.134 226.92 196.166 226.632V225.912ZM219.603 222.552C218.995 222.168 218.307 221.864 217.539 221.64C216.803 221.416 216.035 221.208 215.235 221.016C214.467 220.824 213.715 220.616 212.979 220.392C212.243 220.136 211.571 219.784 210.963 219.336C209.651 218.344 208.883 217.128 208.659 215.688C208.467 214.216 208.787 212.744 209.619 211.272C210.067 210.504 210.659 209.88 211.395 209.4C212.131 208.888 212.931 208.504 213.795 208.248C214.691 207.96 215.603 207.8 216.531 207.768C217.459 207.736 218.339 207.784 219.171 207.912C219.715 208.008 220.291 208.152 220.899 208.344C221.507 208.504 222.067 208.728 222.579 209.016C223.123 209.304 223.603 209.672 224.019 210.12C224.467 210.536 224.787 211.064 224.979 211.704C225.107 212.12 225.123 212.52 225.027 212.904C224.963 213.288 224.803 213.608 224.547 213.864C224.323 214.12 224.019 214.312 223.635 214.44C223.283 214.568 222.899 214.6 222.483 214.536C222.003 214.44 221.555 214.296 221.139 214.104C220.723 213.912 220.307 213.704 219.891 213.48C219.475 213.256 219.043 213.064 218.595 212.904C218.179 212.744 217.731 212.664 217.251 212.664C216.515 212.632 215.907 212.76 215.427 213.048C214.947 213.336 214.611 213.688 214.419 214.104C214.259 214.52 214.275 214.968 214.467 215.448C214.691 215.928 215.139 216.344 215.811 216.696C216.419 217.016 217.091 217.272 217.827 217.464C218.563 217.656 219.283 217.848 219.987 218.04C220.723 218.232 221.427 218.456 222.099 218.712C222.803 218.968 223.427 219.32 223.971 219.768C225.027 220.632 225.667 221.64 225.891 222.792C226.147 223.944 226.083 225.08 225.699 226.2C225.315 227.32 224.643 228.312 223.683 229.176C222.755 230.04 221.651 230.616 220.371 230.904C219.443 231.096 218.435 231.192 217.347 231.192C216.291 231.192 215.235 231.08 214.179 230.856C213.155 230.632 212.163 230.28 211.203 229.8C210.275 229.32 209.491 228.712 208.851 227.976C208.403 227.464 208.163 226.888 208.131 226.248C208.131 225.576 208.259 225 208.515 224.52C208.803 224.008 209.203 223.656 209.715 223.464C210.227 223.272 210.803 223.384 211.443 223.8C211.955 224.152 212.563 224.504 213.267 224.856C213.971 225.176 214.675 225.432 215.379 225.624C216.083 225.816 216.755 225.912 217.395 225.912C218.067 225.912 218.643 225.768 219.123 225.48C219.827 225.032 220.195 224.52 220.227 223.944C220.259 223.336 220.051 222.872 219.603 222.552ZM236.312 227.16C236.28 227.32 236.248 227.48 236.216 227.64C236.216 227.768 236.216 227.912 236.216 228.072L235.928 229.08C235.864 229.208 235.816 229.288 235.784 229.32L235.64 229.608C235.48 229.96 235.192 230.248 234.776 230.472C234.008 230.856 233.192 230.952 232.328 230.76C231.784 230.696 231.352 230.536 231.032 230.28C230.712 230.056 230.488 229.784 230.36 229.464C230.232 229.144 230.136 228.824 230.072 228.504C229.976 228.184 229.928 227.896 229.928 227.64V200.76C229.928 200.536 229.928 200.344 229.928 200.184C229.96 199.992 229.992 199.816 230.024 199.656C230.056 199.432 230.088 199.24 230.12 199.08C230.184 198.92 230.248 198.744 230.312 198.552C230.408 198.232 230.584 197.976 230.84 197.784C231.224 197.496 231.592 197.336 231.944 197.304C232.168 197.24 232.376 197.208 232.568 197.208C232.76 197.176 232.984 197.16 233.24 197.16C233.688 197.16 234.2 197.288 234.776 197.544C235.224 197.8 235.544 198.152 235.736 198.6C236.056 199.24 236.216 199.832 236.216 200.376C236.248 200.696 236.264 201.176 236.264 201.816C236.296 202.456 236.312 202.936 236.312 203.256V203.448C236.376 204.472 236.408 205.464 236.408 206.424C236.408 207.352 236.392 208.376 236.36 209.496C236.36 210.584 236.344 211.64 236.312 212.664C236.312 213.656 236.312 214.648 236.312 215.64V225.72C236.312 225.848 236.312 225.976 236.312 226.104C236.344 226.2 236.36 226.312 236.36 226.44C236.36 226.76 236.344 227 236.312 227.16ZM256.848 224.424C257.232 224.328 257.616 224.264 258 224.232C258.416 224.2 258.784 224.248 259.104 224.376C259.456 224.504 259.744 224.728 259.968 225.048C260.192 225.336 260.304 225.752 260.304 226.296C260.304 226.68 260.208 227.048 260.016 227.4C259.824 227.752 259.584 228.072 259.296 228.36C259.008 228.648 258.688 228.904 258.336 229.128C257.984 229.32 257.648 229.48 257.328 229.608C256.4 230.024 255.328 230.344 254.112 230.568C252.928 230.792 251.696 230.872 250.416 230.808C248.688 230.744 247.024 230.408 245.424 229.8C243.856 229.16 242.624 228.12 241.728 226.68C240.896 225.272 240.4 223.704 240.24 221.976C240.08 220.248 240.16 218.616 240.48 217.08C240.832 215.224 241.424 213.72 242.256 212.568C243.12 211.384 244.144 210.44 245.328 209.736C246.768 208.904 248.384 208.472 250.176 208.44C251.968 208.408 253.68 208.76 255.312 209.496C256.4 209.976 257.376 210.632 258.24 211.464C259.104 212.264 259.76 213.24 260.208 214.392C260.336 214.68 260.432 215.032 260.496 215.448C260.592 215.864 260.656 216.312 260.688 216.792C260.72 217.24 260.72 217.688 260.688 218.136C260.656 218.584 260.576 218.984 260.448 219.336C260.256 219.912 260.016 220.36 259.728 220.68C259.44 221 259.072 221.24 258.624 221.4C258.176 221.56 257.632 221.672 256.992 221.736C256.384 221.768 255.648 221.8 254.784 221.832C254.016 221.864 253.296 221.88 252.624 221.88C251.952 221.88 251.264 221.88 250.56 221.88C249.856 221.848 249.12 221.832 248.352 221.832C247.616 221.8 246.784 221.768 245.856 221.736C245.76 222.376 245.84 222.936 246.096 223.416C246.384 223.864 246.768 224.248 247.248 224.568C247.728 224.856 248.272 225.08 248.88 225.24C249.488 225.4 250.08 225.496 250.656 225.528C251.744 225.592 252.784 225.512 253.776 225.288C254.768 225.032 255.792 224.744 256.848 224.424ZM254.784 215.112C254.176 214.408 253.536 213.896 252.864 213.576C252.352 213.352 251.808 213.256 251.232 213.288C250.688 213.288 250.16 213.368 249.648 213.528C248.72 213.752 247.936 214.232 247.296 214.968C247.232 215.032 247.12 215.192 246.96 215.448C246.8 215.672 246.64 215.912 246.48 216.168C246.352 216.424 246.256 216.664 246.192 216.888C246.128 217.112 246.16 217.224 246.288 217.224H255.696C255.664 216.776 255.584 216.408 255.456 216.12C255.328 215.8 255.104 215.464 254.784 215.112Z" fill="#996AA2"/>
<path d="M68.9498 75.7659C70.8032 76.206 72.5606 78.1326 74.3851 78.8981C77.7788 80.3218 81.9394 81.1232 85.5879 81.3978C88.3397 81.6049 91.0627 81.5307 93.8013 82.0001C95.6574 82.3183 97.4488 83.0314 99.2669 83.506C102.037 84.2291 104.848 84.6958 107.677 85.1173C114.836 86.1844 122.054 86.6908 129.252 87.3912C130.198 87.4832 131.67 87.2692 131.743 88.4754C131.928 91.5148 132.271 94.487 132.271 97.5407C132.271 102.861 131.728 108.139 131.728 113.473C131.728 121.394 132 129.354 132 137.296C132 147.174 132 157.053 132 166.931C132 167.235 131.832 167.991 132.241 168.136C132.305 168.159 133.185 168.255 132.634 168.136C131.591 167.911 130.599 168.026 129.554 167.91C125.355 167.445 121.277 166.113 117.068 165.606C112.058 165.003 107.109 164.265 102.166 163.257C96.561 162.114 91.2214 160.569 85.4823 160.32C81.7035 160.157 78.0818 159.236 74.3851 158.709C72.71 158.47 73.0263 156.175 73.0263 155.065C73.0263 152.693 72.7545 150.345 72.7545 147.987C72.7545 147.727 72.3821 146.598 72.6337 146.527C72.9986 146.423 73.6222 146.613 73.9624 146.647C76.0612 146.856 78.1964 146.915 80.3036 146.993C83.3555 147.107 85.711 145.738 87.8527 143.65C88.7109 142.814 90.8824 139.971 89.9664 140.744C88.8671 141.672 88.1338 142.975 87.0223 143.906C85.7846 144.943 84.3559 145.584 82.9458 146.331C80.0447 147.868 89.4141 143.918 91.4309 141.331C92.5344 139.916 94.4992 136.807 94.3751 134.826C94.3453 134.351 93.8305 135.608 93.5598 136.001C92.9623 136.866 92.2501 137.638 91.5064 138.38C91.4441 138.442 89.9718 139.836 89.906 139.705C89.6923 139.279 91.3318 136.873 91.5064 136.543C93.9519 131.923 95.5829 127.245 95.5829 121.996C95.5829 118.897 95.036 114.646 92.6539 112.358C90.8251 110.602 87.7932 109.433 85.5728 108.187C85.0411 107.889 83.5013 106.925 83.9573 107.329C85.8399 108.998 88.5519 109.974 90.6911 111.274C92.3617 112.29 92.5725 113.447 93.4088 115.069C93.6734 115.582 93.6512 115.39 93.2578 114.918C92.1401 113.577 90.7942 112.277 89.3927 111.229C88.8808 110.846 88.3732 110.913 87.7772 110.822C86.5082 110.631 85.2789 109.951 84.0932 109.497C81.0762 108.343 77.9606 107.191 74.7475 106.727C74.0093 106.62 73.3153 106.437 72.5734 106.335C70.3416 106.028 71.1428 104.619 71.1239 102.48C71.0686 96.2183 69.062 89.9778 69.9312 83.7168C70.049 82.8682 70.066 80.8718 70.7465 80.2383C71.6138 79.4309 73.8443 79.8485 74.9136 79.8166C76.3567 79.7737 77.7884 79.5052 79.2165 79.3498C82.641 78.9772 86.8396 80.8275 90.0872 81.7291C94.1256 82.8502 98.2668 83.5415 102.362 84.4246C103.49 84.6679 104.687 84.9517 105.85 84.9517C105.907 84.9517 104.107 84.5097 103.796 84.4397C99.9951 83.5836 107.923 85.7221 105.623 84.5752C104.229 83.8801 105.244 84.1546 106.061 84.3644C108.41 84.9678 110.576 85.9706 112.734 87.0599C116.243 88.8305 120.002 90.4391 123.333 92.5262C124.56 93.295 124.118 95.1157 124.118 96.3661C124.118 103.375 124.077 110.34 124.722 117.328C125.512 125.872 125.253 134.364 125.477 142.928C125.653 149.637 125.749 156.335 125.749 163.046" stroke="#84B0B5" stroke-width="4" stroke-linecap="round"/>
<path d="M125.749 162.775C117.916 159.605 109.77 157.623 101.381 156.872C95.2356 156.321 89.2199 154.618 83.1723 153.469C81.6408 153.178 79.518 153.353 78.0691 152.686C76.5216 151.973 74.9289 150.22 73.6303 149.102C72.8696 148.446 71.6675 146.421 71.6675 145.427C71.6675 145.213 71.7261 145.155 71.9393 145.322C73.8806 146.837 75.6246 147.796 78.0842 148.409C82.4849 149.506 87.1427 149.656 91.6122 150.397C97.465 151.366 103.271 152.487 109.156 153.258C112.35 153.676 115.53 154.121 118.713 154.613C118.822 154.63 120.709 154.937 121.129 154.914C121.655 154.886 121.236 154.521 121.069 154.372C114.462 148.507 105.126 146.953 96.8512 144.78C95.2517 144.36 93.646 143.963 92.05 143.53C91.1294 143.28 90.2011 143.05 89.3021 142.732C88.9774 142.617 88.2153 142.527 88.3963 142.235C88.6343 141.85 89.2869 142.042 89.74 142.024C90.8212 141.981 91.9058 141.992 92.9861 142.054C96.8036 142.274 100.064 142.717 103.857 143.349C109.737 144.329 115.437 145.722 121.431 145.759C122.197 145.763 124.432 145.934 123.726 145.638C122.022 144.924 120.128 144.788 118.351 144.283C112.702 142.678 106.819 141.005 101.668 138.109C95.1384 134.438 106.879 135.467 107.873 135.519C111.209 135.694 114.529 136.139 117.868 136.257C119.038 136.298 121.733 136.588 119.181 135.172C113.667 132.113 107.257 130.995 101.622 128.185C101.349 128.049 100.599 127.688 100.898 127.628C101.486 127.509 102.08 127.836 102.664 127.974C103.903 128.268 105.127 128.618 106.363 128.923C108.36 129.416 113.815 130.745 115.965 131.091C119.281 131.626 116.603 130.563 115.241 129.917C112.193 128.471 107.078 126.403 104.279 124.526C102.749 123.5 100.073 121.585 103.645 120.852C106.184 120.33 111.413 121.018 113.882 121.153C116.151 121.276 117.722 121.551 114.788 120.099C113.808 119.614 103.144 115.936 103.464 114.497C103.764 113.149 115.657 115.153 117.188 115.461C122.181 116.464 121.454 122.057 119.559 125.52C118.585 127.299 118.976 124.934 118.94 124.345C118.613 119.022 117.139 113.9 117.611 108.518C117.871 105.556 118.442 104.105 119.091 101.29C119.416 99.8819 120.181 98.0547 119.076 96.6673C117.763 95.0207 113.82 93.8709 112.372 93.3393C109.201 92.1751 103.022 90.0726 99.901 89.0476C94.7746 87.3637 89.676 85.81 84.3499 84.8914C83.2198 84.6965 76.0579 82.8416 74.9891 84.2288C74.3083 85.1124 74.8682 86.4641 74.9891 87.5719C75.1571 89.1103 75.5804 92.0729 75.9252 93.5953C76.3377 95.4167 77.1908 96.7415 77.9483 98.384C78.5629 99.7164 82.3025 106.487 82.055 101.14C81.8995 97.7787 79.7585 94.6711 79.7903 91.3666C79.8038 89.9679 80.4742 89.8334 81.6474 90.6288C83.776 92.0718 85.9367 95.1873 87.3092 97.0287C90.3416 101.097 93.0243 105.68 96.6096 109.317C98.1052 110.834 97.8747 109.631 97.2438 108.323C95.8307 105.393 93.5983 102.232 91.5669 99.7694C89.7324 97.5454 83.2036 91.9188 85.6333 93.4749C92.7811 98.0525 98.7582 104.588 104.355 110.868C105.583 112.246 106.721 113.703 107.963 115.069C109.713 116.993 109.646 116.404 108.114 113.955C105.686 110.072 102.912 106.423 99.8406 103.022C97.948 100.927 95.5103 99.3672 93.6202 97.2696C92.3771 95.8901 96.92 98.9828 98.5422 99.8899C103.509 102.667 104.9 103.526 109.685 106.516C111.729 107.793 113.6 109.171 110.983 107.148C106.173 103.43 105.218 102.789 100.203 98.8056C100.057 98.6895 90.4756 91.9729 97.9081 95.568C103.016 98.0385 104.028 98.7848 109.443 101.215C111.151 101.982 112.868 102.74 114.637 103.353C115.21 103.552 116.616 104.216 116.433 103.639C116.173 102.818 115.046 102.597 114.274 102.209C112.396 101.263 110.459 100.433 108.507 99.6489C104.706 98.1216 100.386 96.6039 96.3681 95.5981C90.19 94.0516 97.4583 97.253 98.1044 96.3812C98.3338 96.0716 97.5556 95.8218 97.2136 95.6433C94.8138 94.3912 92.2046 93.5746 89.7853 92.3605C87.8521 91.3904 82.949 87.6853 85.1049 87.873C87.7838 88.1063 90.0516 90.4347 92.05 92.0292" stroke="#84B0B5" stroke-width="4" stroke-linecap="round"/>
<path d="M141.511 86.6081C139.874 87.1526 144.319 87.9333 144.622 87.9333C148.042 87.9333 150.454 87.0123 153.53 85.8552C155.874 84.9733 158.708 84.5708 161.184 84.3192C166.454 83.7839 171.706 83.1674 176.992 82.8133C182.586 82.4386 188.62 82.6254 194.068 81.187C194.771 81.0013 198.9 79.0723 199.126 79.7112C199.659 81.2162 199.375 83.2334 199.458 84.801C199.519 85.944 199.67 87.0588 199.67 88.2043C199.67 91.0872 199.362 93.8359 198.854 96.6673C198.655 97.775 198.661 98.9062 198.462 100.01C198.088 102.079 195.966 102.509 194.219 103.127C190.781 104.344 188.397 105.915 185.598 108.232C183.444 110.016 182.018 112.207 181.235 114.903C180.727 116.65 179.996 121.988 180.767 120.34C181.776 118.181 182.451 115.472 183.937 113.578C184.004 113.493 185.005 112.501 185.024 112.539C185.417 113.323 183.035 116.559 182.669 117.237C180.508 121.248 180.188 125.764 182.337 129.827C184.753 134.395 189.211 137.803 193.63 140.277C195.611 141.386 197.351 142.429 198.582 144.358C199.886 146.402 199.519 147.81 199.79 150.186C200.025 152.24 203.575 159.773 200.545 160.727C195.663 162.265 190.229 161.827 185.221 163.031C180.894 164.071 176.551 164.556 172.13 165.004C167.715 165.451 163.293 165.603 158.889 166.178C155.061 166.678 150.897 167.018 147.158 167.925C145.894 168.232 144.779 168.823 143.565 169.25C143.019 169.442 142.481 165.38 142.387 164.733C142.175 163.271 142.538 161.879 142.87 160.471C143.548 157.597 143.406 154.671 143.414 151.722C143.45 138.541 143.414 125.359 143.414 112.178C143.414 106.837 143.414 101.496 143.414 96.1553C143.414 94.9362 143.619 93.4779 143.369 92.2702C143.242 91.6616 142.325 91.704 143.474 91.9389C158.379 94.9851 173.596 88.7765 188.527 88.7765C190.215 88.7765 193.319 89.7574 193.404 91.6678C193.541 94.7521 193.124 98.6957 190.127 100.372C187.09 102.07 183.294 102.494 179.891 102.149C178.357 101.993 174.488 101.239 172.976 100.733C169.869 99.6941 171.237 98.592 173.55 97.616C177.462 95.9652 181.858 95.2422 186.096 95.3722C186.189 95.3751 188.493 95.2029 187.168 96.0499C184.485 97.7654 180.742 98.847 177.687 99.5284C171.722 100.859 165.456 100.54 159.388 100.643C158.453 100.659 154.595 101.327 153.545 100.447C152.769 99.797 152.252 98.7851 151.355 98.2786C150.065 97.549 149.386 100.917 149.302 101.426C148.889 103.94 149.087 106.607 149.695 109.076C150.527 112.454 155.655 110.785 158.089 110.551C163.967 109.988 169.897 108.835 175.814 108.835C176.047 108.835 177.794 108.91 176.811 108.293C172.571 105.631 166.308 106.264 161.607 106.696C159.597 106.881 157.029 106.952 155.054 107.585C151.906 108.594 151.295 113.662 150.903 116.364C150.496 119.163 150.627 122.04 150.419 124.857C150.353 125.759 149.921 126.746 150.299 127.568C150.354 127.688 150.545 127.439 150.616 127.327C151.268 126.285 151.651 125.095 152.261 124.029C155.144 118.989 159.324 116.242 165.11 115.355C165.661 115.271 180.471 114.677 177.566 117.81C174.441 121.179 167.972 121.344 163.827 121.695C162.472 121.809 158.468 121.893 156.912 122.418C154.591 123.199 153.947 125.429 153.243 127.477C152.428 129.848 151.673 132.211 151.28 134.69C150.599 138.99 149.724 143.484 149.513 147.837C149.354 151.136 150.196 154.252 150.872 157.444C150.967 157.891 151.01 161.757 151.506 162.022C152.017 162.295 153.781 162.203 153.892 162.203C156.642 162.203 159.068 162.142 161.864 161.992C169.763 161.569 177.754 160.803 185.538 159.342C188.074 158.865 192.209 158.422 193.932 156.059C194.866 154.778 194.082 152.901 193.585 151.616C192.198 148.033 189.654 145.808 186.896 143.259C183.769 140.368 181.443 136.911 178.562 133.802C176.012 131.05 175.996 131.384 173.399 128.803C171.433 126.848 170.025 124.474 168.084 122.523C165.907 120.334 162.069 118.331 159.901 121.74C157.745 125.131 158.029 130.561 157.757 134.434C157.423 139.186 157.057 143.974 157.244 148.74C157.397 152.655 157.178 157.243 161.773 158.212C166.855 159.284 172.586 159.218 177.732 158.709C180.915 158.394 183.205 157.377 185.719 155.547C187.567 154.201 187.572 152.981 186.353 150.939C185.49 149.493 182.342 145.403 181.491 144.283C178.981 140.976 176.545 137.567 173.655 134.57C171.09 131.909 168.126 129.581 165.216 127.312C164.918 127.08 163.321 125.723 162.619 125.58C160.941 125.239 161.17 128.755 161.048 130.459C160.607 136.664 161.402 142.542 163.192 148.469C163.586 149.771 163.781 151.144 164.34 152.384C165.102 154.076 167.895 154.219 169.352 154.447C171.44 154.775 177.382 156.081 178.713 153.393C179.345 152.119 178.609 150.49 178.155 149.388C176.845 146.213 174.868 143.319 173.187 140.337C172.709 139.488 169.652 132.192 167.692 133.17C166.602 133.713 166.792 136.897 166.816 137.265C167.065 141.051 168.166 144.842 169.398 148.409C169.888 149.828 170.921 151.367 171.24 152.851C171.42 153.691 171.479 154.763 171.678 155.456" stroke="#84B0B5" stroke-width="4" stroke-linecap="round"/>
<path d="M147.468 34.7483C149.906 35.5059 152.503 36.156 154.635 37.6235C155.242 38.0411 155.549 38.1441 156.254 38.4703C159.214 39.8377 161.533 42.0752 163.639 44.516C164.409 45.4084 165.978 47.4533 166.739 48.4546C167.438 49.3754 168.481 50.4574 168.851 51.5956C169.158 52.5356 168.953 53.7169 168.526 54.5889C167.966 55.7303 166.216 55.1723 165.317 54.8351C164.786 54.6358 164.463 54.4376 164.054 54.0868C163.986 54.0292 163.843 53.8222 163.856 53.9095C163.969 54.6713 164.186 55.5333 164.458 56.253C164.719 56.9402 165.227 57.5734 165.811 58.0155C166.458 58.5057 167.537 58.6071 168.042 59.2463C168.953 60.4007 169.846 61.5915 171.201 62.279C172.017 62.6929 172.921 62.9685 173.778 63.2833C174.55 63.5673 175.737 64.2387 176.591 63.9332C177.32 63.6724 177.96 63.1094 178.645 62.7516C179.482 62.3144 180.046 62.0751 180.441 61.1762C181.437 58.9128 181.001 57.096 180.728 54.7071C180.382 51.6897 181.071 48.6809 179.869 45.7763C178.7 42.9519 177.03 40.4122 176.009 37.5053C175.133 35.0112 175.158 31.8569 173.551 29.6872C171.887 27.4414 169.356 25.7817 167.489 23.6907C165.046 20.9546 162.649 18.508 159.177 17.0837C153.371 14.7023 147.365 12.8476 141.397 10.9297C139.058 10.1781 136.457 8.99834 133.973 8.84226C131.329 8.67614 129.291 11.2583 127.388 12.6922C124.453 14.9031 121.643 15.38 117.99 15.2523C114.595 15.1337 114.508 14.8825 111.237 14.7206C110.268 14.6726 108.683 14.567 107.703 15.0751C105.988 15.9638 105.335 18.5597 104.642 20.1558C103.182 23.5185 100.883 26.2342 98.5609 29.0374C96.3637 31.6896 94.0556 34.3338 92.2822 37.2985C90.8981 39.6125 90.4262 42.0056 90.4262 44.6735C90.4262 45.6598 90.4826 46.6344 91.0185 47.4896C91.4955 48.2508 92.0849 48.8451 92.2229 49.7838C92.6633 52.7783 91.5131 55.9523 91.7096 58.9903C91.7768 60.0289 92.0101 61.0464 92.3019 62.0427C93.0249 64.5109 90.9757 57.0678 90.5052 54.5397C89.8943 51.2577 89.1103 47.262 90.7915 44.1418C92.1249 41.667 94.1322 42.3378 95.8164 43.9843C96.936 45.0788 97.5867 46.184 99.1928 46.5247C99.928 46.6806 100.222 46.6382 100.911 46.9579C101.529 47.2453 101.751 47.7642 102.273 48.1296C103.451 48.9552 104.862 45.8769 105.086 45.3726C106.376 42.4712 106.658 38.7326 103.231 37.1902C101.819 36.5552 100.288 36.5011 98.8077 36.8357C97.9213 37.0361 97.3244 37.5211 98.6991 37.6432C103.374 38.0584 107.254 35.1305 108.729 30.8491C109.79 27.7708 109.697 24.3383 110.862 21.298C112.498 17.0259 118.843 17.6264 122.491 17.0148C123.938 16.7722 130.172 16.014 128.316 12.9876C127.217 11.1953 125.252 11.3948 123.479 11.5894C120.424 11.9246 117.48 11.2695 114.436 11.363C109.211 11.5233 125.288 11.296 129.915 8.8718C130.83 8.39268 131.556 7.43778 132.62 7.27667C134.44 7.00131 136.377 7.3303 138.168 7.64099C142.384 8.37224 146.656 9.11198 150.667 10.6442C153.971 11.9061 156.844 13.9337 159.808 15.8234C163.311 18.0557 166.404 20.4267 168.802 23.868C169.684 25.1332 170.106 26.4773 170.372 27.9936C171.075 32.0045 171.258 36.0642 172.07 40.0654C172.749 43.4107 173.351 46.6694 173.511 50.0891C173.548 50.8744 173.59 53.1867 173.59 54.1064C173.59 54.3941 173.681 55.6199 173.393 54.7169C173.074 53.7175 172.59 53.0651 171.961 52.2061C170.439 50.1254 169.597 49.0152 168.121 46.6625C165.83 43.0104 164.213 39.4005 162.691 35.3982C160.968 30.8678 158.264 27.8582 154.181 25.1972C153.286 24.6135 150.677 23.2616 151.121 24.2323C151.548 25.1653 152.337 25.8923 153.036 26.6447C155.501 29.2981 158.966 32.2901 161.546 34.7385C165.534 38.5227 169.702 42.3999 171.635 47.6767C172.152 49.0874 172.26 49.8888 172.692 51.31C173.284 53.2572 174.109 55.1193 174.716 57.0604C174.961 57.8453 175.815 59.9846 174.419 58.5767C171.102 55.2305 166.529 53.8514 162.464 51.6547C160.037 50.3433 157.905 48.7109 155.366 47.5979C153.022 46.5705 150.715 45.5509 148.416 44.4274C146.431 43.4576 144.408 42.8584 142.285 42.2808C139.58 41.545 137.234 40.2574 134.851 38.805C129.669 35.6466 124.116 32.2564 117.792 33.9704C115.715 34.5333 113.87 36.4003 111.908 37.3281C108.705 38.8431 103.664 38.2848 103.112 34.0492C102.813 31.7526 104.425 30.0013 106.469 29.2343C107.967 28.6718 109.261 28.5183 110.862 28.7223C113.151 29.0139 114.648 30.4252 116.746 31.1445C121.117 32.6436 126.119 31.7694 130.646 32.2867C133.583 32.6224 135.135 33.0495 137.951 33.7833C139.526 34.1936 143.299 35.291 137.764 33.2418C133.844 31.7907 130.485 30.6954 126.47 29.3918C125.549 29.0929 119.152 27.1465 117.516 26.3788C115.417 25.3942 117.268 25.3218 118.483 25.2169C123.047 24.8232 127.69 25.2716 132.245 25.532C133.42 25.5992 134.593 25.711 135.769 25.7289C136.314 25.7373 137.055 26.0324 137.398 25.6108C137.649 25.3035 136.806 25.069 136.451 24.892C135.455 24.3953 134.386 24.0586 133.371 23.6021C132.21 23.0802 130.964 22.6924 129.925 21.9577C129.423 21.6023 128.518 20.9224 128.889 20.4315C129.837 19.1758 136.509 19.2148 136.747 19.2106C138.044 19.1875 139.339 19.3133 140.637 19.3287C140.992 19.333 141.935 19.5386 141.703 19.2697C141.345 18.8562 140.665 18.9212 140.143 18.7576C139.303 18.4945 138.454 18.2595 137.616 17.9896C137.287 17.8837 134.698 17.1789 136.984 17.3988C141.029 17.7882 145.345 18.3697 149.176 19.7718C152.706 21.0636 155.159 23.7569 158.18 25.8373C159.736 26.9095 161.287 27.554 162.612 28.9586C163.375 29.7671 164.911 31.6101 165.574 32.5033C165.868 32.8992 166.595 33.9551 166.107 33.8818C164.421 33.6287 162.892 32.7407 161.25 32.2867C156.374 30.9391 151.572 30.1414 146.51 30.7999C143.514 31.1897 144.107 31.3542 141.999 32.0208C141.508 32.176 141.875 31.7292 141.614 31.3907C140.601 30.0784 138.53 28.8606 137.3 28.0822C134.949 26.595 132.493 25.3209 130.231 23.7006C126.373 20.9365 121.964 18.9847 117.832 16.6702C116.333 15.831 114.54 14.2296 112.816 13.6867C112.208 13.495 114.002 14.1619 114.574 14.4449C118.941 16.6074 122.522 19.9825 125.907 23.4249C126.394 23.9203 128.97 26.0408 129.027 27.1074C129.1 28.4793 126.539 29.8434 125.581 30.3666C124.35 31.039 124.029 31.2409 123.498 32.6018C123.217 33.323 123.34 34.1208 122.728 34.7089C122.347 35.0752 121.583 34.9255 121.099 34.9255C119.135 34.9255 125.04 35.6503 126.736 36.6388C128.532 37.6856 130.156 38.5216 131.791 39.8192C134.3 41.8114 137.587 43.1527 140.538 44.3388C144.731 46.0245 148.973 47.1594 153.352 48.238C155.205 48.6942 157.752 48.9122 159.374 49.9906" stroke="#996AA2" stroke-width="4" stroke-linecap="round"/>
<path d="M185.923 65.7846C186.51 61.2959 187.86 56.7781 186.994 52.2288C186.281 48.475 185.042 44.4974 183.848 40.8766C180.585 30.987 176.905 20.7259 168.716 13.6981C161.585 7.57767 150.959 3.84067 141.935 1.61137C136.487 0.265329 132.147 1.12636 127.608 4.34925C123.757 7.08341 118.862 5.37257 114.284 6.2858C107.84 7.5713 105.02 10.1964 100.827 14.9669C93.5373 23.2594 87.9714 32.0405 86.7665 43.2806C86.3193 47.4523 87.1959 51.2633 87.5699 55.3673C87.7706 57.5691 87.0532 61.0838 88.1725 63.1135C89.416 65.3685 96.0486 66.3856 98.4163 66.3856C100.849 66.3856 97.4093 60.4731 97.1442 59.6411C96.8118 58.598 96.193 46.0137 98.2154 48.4892C99.0477 49.508 103.695 56.3243 105.178 55.9015C106.738 55.4571 108.107 50.3035 108.928 48.9567C110.239 46.8059 111.765 44.5752 113.347 42.6128C115.123 40.4088 119.23 41.0247 121.716 41.2773C125.72 41.684 127.927 43.3172 130.754 45.9517C138.337 53.0171 147.256 51.5331 156.464 54.3657C162.271 56.1518 162.841 63.082 167.11 66.8531C170.376 69.7386 175.695 69.3559 179.764 69.3906C181.653 69.4067 184.572 70.3009 183.513 68.1886" stroke="black" stroke-width="2" stroke-linecap="round"/>
<path d="M136.79 82.1407L169.672 78.0079L202.553 73.8751" stroke="black" stroke-width="2" stroke-linecap="round"/>
<path d="M71.0056 71.5318L103.655 77.208L136.304 82.8842" stroke="black" stroke-width="2" stroke-linecap="round"/>
<path d="M203.398 72.9966C203.398 80.8541 203.398 88.7116 203.398 96.5691C203.398 97.8603 202.644 102.002 203.498 103.28C204.076 104.145 207.184 105.115 208.219 105.918C209.573 106.969 210.803 108.387 211.834 109.758C218.844 119.08 213.132 130.979 205.206 137.303" stroke="black" stroke-width="2" stroke-linecap="round"/>
<path d="M204.603 137.303C204.603 144.805 204.603 152.306 204.603 159.807C204.603 162.06 205.138 164.249 203.398 165.55" stroke="black" stroke-width="2" stroke-linecap="round"/>
<path d="M139.14 174.292L201.759 165.264" stroke="black" stroke-width="2" stroke-linecap="round"/>
<path d="M137.468 174.467L136.79 83.2483" stroke="black" stroke-width="2" stroke-linecap="round"/>
<path d="M66.3068 162.921L137.965 174.637" stroke="black" stroke-width="2" stroke-linecap="round"/>
<path d="M67.2163 160.742C67.2163 154.131 67.2163 147.52 67.2163 140.909C67.2163 138.309 67.2052 136.857 65.4086 134.866C59.2583 125.428 59.6499 125.428 60.4331 119.57C60.8213 116.666 61.9134 113.407 63.9572 111.368C67.3374 107.997 65.3776 104.262 65.4086 98.6392C65.4423 92.5184 65.4086 86.3964 65.4086 80.2754C65.4086 77.469 64.5276 72.9815 67.2163 71.1937" stroke="black" stroke-width="2" stroke-linecap="round"/>
<path d="M65.6306 112.634C67.8336 111.681 70.8748 111.554 73.2607 111.616C75.9432 111.685 78.8973 112.257 81.3296 113.404C83.1221 114.25 84.804 115.942 86.1367 117.371C87.1267 118.432 88.1817 119.654 88.6737 121.043C89.1471 122.38 88.8356 123.911 88.6355 125.267C88.1051 128.862 87.0959 132.486 85.0875 135.55C82.7685 139.087 79.4942 140.749 75.2255 140.23C72.9165 139.95 69.6528 139.615 67.6907 138.147" stroke="black" stroke-width="2.16437" stroke-linecap="round"/>
<path d="M203.145 104.072C200.502 106.803 196.891 108.078 193.884 110.265C190.156 112.976 187.011 117.496 187.074 122.232C187.197 131.386 194.961 137.937 203.661 138.661" stroke="black" stroke-width="2.16437" stroke-linecap="round"/>
<path d="M122.442 61.3416C121.535 61.7649 120.638 63.5802 121.728 64.3851C122.445 64.9147 123.115 63.2042 123.314 62.8634" stroke="black" stroke-width="2.16437" stroke-linecap="round"/>
<path d="M148.598 62.646C148.208 62.7382 146.106 64.394 146.733 64.6025C147.121 64.7314 147.361 64.5768 147.726 64.8199" stroke="black" stroke-width="2.16437" stroke-linecap="round"/>
<path d="M152.986 21.2073C149.786 20.9356 146.593 20.5868 143.393 20.3119C142.769 20.2583 128.504 18.5846 137.724 21.591C142.233 23.0613 147.118 23.8317 151.498 25.6588C151.755 25.7659 152.315 26.1549 152.062 26.2728C151.395 26.5848 150.594 26.4324 149.857 26.4263C147.463 26.4063 144.604 26.0925 142.213 25.9146C140.362 25.777 138.49 25.6504 141.469 26.81C143.539 27.6157 148.598 29.7409 150.472 27.4496C150.938 26.88 150.561 24.5171 150.626 25.2494C150.758 26.7405 151.459 27.4717 152.062 28.5753" stroke="#996AA2" stroke-width="2.16437" stroke-linecap="round"/>
<path d="M174.939 126.996C175.143 125.547 175.042 126.442 175.15 124.375C175.203 123.357 175.072 119.514 175.845 123.487C176.412 126.406 176.814 129.369 177.928 132.146" stroke="#84B0B5" stroke-width="4" stroke-linecap="round"/>
</svg>
