<svg width="26" height="26" viewBox="0 0 26 26" fill="none" xmlns="http://www.w3.org/2000/svg">
<rect x="4.33325" y="4.33337" width="17.3333" height="17.3333" rx="8.66667" fill="#282828"/>
<path fill-rule="evenodd" clip-rule="evenodd" d="M13.0001 23.4C15.7583 23.4 18.4036 22.3043 20.354 20.3539C22.3044 18.4035 23.4001 15.7582 23.4001 13C23.4001 10.2417 22.3044 7.59644 20.354 5.64606C18.4036 3.69569 15.7583 2.59998 13.0001 2.59998C10.2418 2.59998 7.59657 3.69569 5.64619 5.64606C3.69581 7.59644 2.6001 10.2417 2.6001 13C2.6001 15.7582 3.69581 18.4035 5.64619 20.3539C7.59657 22.3043 10.2418 23.4 13.0001 23.4ZM12.4216 9.31838C12.2258 9.18775 11.9982 9.11273 11.7632 9.10131C11.5281 9.08989 11.2943 9.14251 11.0868 9.25354C10.8793 9.36457 10.7058 9.52986 10.5849 9.73176C10.4639 9.93367 10.4001 10.1646 10.4001 10.4V15.6C10.4001 15.8353 10.4639 16.0663 10.5849 16.2682C10.7058 16.4701 10.8793 16.6354 11.0868 16.7464C11.2943 16.8574 11.5281 16.9101 11.7632 16.8986C11.9982 16.8872 12.2258 16.8122 12.4216 16.6816L16.3216 14.0816C16.4996 13.9629 16.6456 13.802 16.7466 13.6133C16.8476 13.4247 16.9004 13.214 16.9004 13C16.9004 12.786 16.8476 12.5753 16.7466 12.3866C16.6456 12.1979 16.4996 12.0371 16.3216 11.9184L12.4216 9.31838Z" fill="#FCFCFC"/>
</svg>
